<?xml version="1.0" standalone="no"?><!DOCTYPE svg PUBLIC "-//W3C//DTD SVG 1.1//EN" "http://www.w3.org/Graphics/SVG/1.1/DTD/svg11.dtd"><svg t="1565749520351" class="icon" viewBox="0 0 1096 1024" version="1.1" xmlns="http://www.w3.org/2000/svg" p-id="5380" xmlns:xlink="http://www.w3.org/1999/xlink" width="214.0625" height="200"><defs><style type="text/css"></style></defs><path d="M234.827289 1002.406242c1.428153 2.170792 1.87088 3.798887 1.428153 4.884283s-1.985133 2.127948-4.741468 3.113374a59.096967 59.096967 0 0 1-15.266954 2.970558 167.09389 167.09389 0 0 1-23.264611-0.599825 51.413505 51.413505 0 0 1-14.3815-3.413285 63.69562 63.69562 0 0 1-15.252673-8.883111 133.360918 133.360918 0 0 1-16.895049-15.709682 253.86846 253.86846 0 0 1-18.96587-23.564523 151.484179 151.484179 0 0 0-10.668303-13.039036 53.555734 53.555734 0 0 0-10.082759-8.440384 56.611981 56.611981 0 0 0-11.553757-5.626922q-6.226747-2.227919-14.524315-4.284459a151.284237 151.284237 0 0 0-2.856306 16.595137q-1.042552 8.883111-1.328182 17.137835a32.233411 32.233411 0 0 1-5.341292 16.895049q-5.04138 7.712026-15.995312 13.338948-16.895049 8.568917-29.491358 9.34012a49.985352 49.985352 0 0 1-21.493701-2.856306c-2.956277-1.185367-4.284459-2.627801-4.141644-4.284459s2.070822-2.627801 5.626923-2.856305q8.568917-0.571261 19.408598-6.369562a71.707557 71.707557 0 0 0 20.308334-16.737952 64.266881 64.266881 0 0 0 8.9688-15.424052 122.592645 122.592645 0 0 0 6.226747-22.364874 42.844587 42.844587 0 0 1-13.338948 3.256188 58.725647 58.725647 0 0 1-13.338948-0.299912 34.646989 34.646989 0 0 1-10.668302-3.113373c-2.956277-1.428153-4.741468-3.299033-5.327011-5.484107q-2.670646-10.36839 0.585543-16.295225 2.370734-4.141643 4.898564-3.856013c1.670939 0.199941 2.213637 1.299619 1.628095 3.27047a1.071115 1.071115 0 0 0 0.885454 1.428153q1.171085 0.299912 5.712612-1.328182t13.181851-5.626922q8.568917-4.01311 23.421708-11.710854a60.625091 60.625091 0 0 0 1.913725-8.740296 59.796762 59.796762 0 0 0 0.742639-9.040208q-8.297568 6.512377-11.425223 4.741468t-0.142815-5.926835q2.385015-3.256189 5.926834-7.712025c2.370734-2.956277 4.841438-5.926835 7.412114-8.883112-0.999707-3.955984-1.085396-6.269591-0.299912-6.969386s2.670646-0.242786 5.626922 1.342464c0.799766-0.985426 1.528124-1.885162 2.227919-2.670646s1.428153-1.58525 2.227918-2.370734a18.8659 18.8659 0 0 1-6.526658-2.370734 49.856818 49.856818 0 0 1-7.697744-5.184195 70.393657 70.393657 0 0 1-7.412114-6.969386 42.716053 42.716053 0 0 1-5.626922-7.412113q-5.626922-10.668302 4.141643-9.782848a34.832649 34.832649 0 0 0 11.996484-1.185367 73.092866 73.092866 0 0 0 15.866779-5.926834q17.137835-8.283287 17.780504-12.439212c0-0.785484 0.74264-1.428153 2.213637-1.928006a17.609125 17.609125 0 0 1 5.926834-0.599825 44.044236 44.044236 0 0 1 8.454666 1.342464 61.196352 61.196352 0 0 1 9.99707 3.556101 27.206313 27.206313 0 0 1 9.34012 6.669474 15.381207 15.381207 0 0 1 3.698916 7.412113 9.097334 9.097334 0 0 1-1.328182 6.655193 10.225575 10.225575 0 0 1-6.06965 4.155925 64.266881 64.266881 0 0 0-7.712026 4.884283q-6.212465 4.284459-14.281529 10.382671t-16.009594 12.439212q-7.997656 6.383843-13.039036 10.825399a49.856818 49.856818 0 0 1 5.712612 9.040208 31.419364 31.419364 0 0 1 2.956276 9.025927l10.382672-4.741468q6.512377-2.956277 13.481763-6.369562t13.181852-6.669474q6.241028-3.256189 9.782847-5.32701c3.156218-1.785191 7.354987-1.970851 12.596309-0.599825a38.845759 38.845759 0 0 1 15.552585 8.897393c2.970558 2.570675 4.098799 5.084224 3.413285 7.554929s-3.698916 4.498682-9.040208 6.06965a161.081366 161.081366 0 0 0-16.009594 5.712611q-9.768566 3.998828-19.994141 8.897393t-19.565694 9.768566q-9.34012 4.898564-14.667131 8.454665a104.412259 104.412259 0 0 1 12.596309 7.255017q6.969386 4.598652 13.338948 9.482935t11.696572 9.482935a87.560055 87.560055 0 0 1 7.712026 7.269299 55.697963 55.697963 0 0 0 7.255017 7.140764q4.598652 3.856013 9.782847 7.554929a120.550387 120.550387 0 0 0 10.36839 6.669474 50.913651 50.913651 0 0 0 8.754578 4.141643q16.280943 5.626922 26.663614 9.997071a153.612126 153.612126 0 0 1 16.895049 7.997656 43.872857 43.872857 0 0 1 9.925663 7.255017 39.445583 39.445583 0 0 1 5.941116 7.683462z m288.658265-15.124139a71.864654 71.864654 0 0 1-7.56921 6.226747 50.185293 50.185293 0 0 1-9.625751 4.898564 165.023068 165.023068 0 0 1-17.037864 5.484107q-10.811117 2.956277-29.79127 7.997657c-2.370734 0.585543-4.398711 1.02827-6.069649 1.328182a43.758605 43.758605 0 0 1-4.884283 0.599824 23.678775 23.678775 0 0 1-5.198477-0.299912c-1.87088-0.299912-4.19877-0.74264-6.955105-1.328182q-7.712026-1.785191-17.037864-4.284459t-18.68024-5.484107c-6.226747-1.985133-12.196426-3.998828-17.923319-6.083931s-10.668302-4.098799-14.824227-6.06965a37.631829 37.631829 0 0 0-11.111029-2.856306 159.167641 159.167641 0 0 0-16.452322-1.342464q-8.883111-0.271349-17.480591 0.157097a71.193422 71.193422 0 0 0-14.28153 1.928006q-9.497217 2.356452-12.596308 0.74264c-2.070822-1.099678-3.513256-4.498682-4.284459-10.225575q-1.785191-13.053318 8.297569-13.338948 7.412114-0.299912 9.782847-1.342464a8.568917 8.568917 0 0 0 3.856013-3.399004c1.570968-2.370734 2.170792-4.284459 1.770909-5.626922s-1.87088-3.070529-4.441555-5.04138a31.247986 31.247986 0 0 1-8.297569-8.568917 36.717811 36.717811 0 0 1-4.741467-10.525487 37.974586 37.974586 0 0 1-1.342464-11.11103 27.420536 27.420536 0 0 1 2.227919-10.36839c0.985426-2.170792 0.485572-3.356159-1.428153-3.556101a27.706166 27.706166 0 0 1-10.811118-3.113373c-3.070529-1.670939-5.284166-4.684342-6.669474-9.040208a35.318221 35.318221 0 0 1-1.428153-12.296396 41.145085 41.145085 0 0 1 2.670646-12.853376 38.802914 38.802914 0 0 1 6.81229-11.425224 34.761242 34.761242 0 0 1 10.968214-8.440383 3.670353 3.670353 0 0 0 2.070822-1.928007 5.055661 5.055661 0 0 0-0.442728-3.856013 24.707045 24.707045 0 0 0-4.284459-6.226746 98.399735 98.399735 0 0 0-9.482935-9.025927 3.184781 3.184781 0 0 1-1.328182-3.856013q0.728358-2.385015 5.484107-3.27047a45.086787 45.086787 0 0 1 11.696572-0.28563 64.72389 64.72389 0 0 1 13.338949 2.656364 55.797934 55.797934 0 0 1 12.296396 5.484107 28.563058 28.563058 0 0 1 8.897393 8.154753 20.279771 20.279771 0 0 1 2.670646 5.626923 5.612641 5.612641 0 0 1-0.885455 4.598652 14.48147 14.48147 0 0 1-5.78402 4.284459 70.379375 70.379375 0 0 1-12.010765 4.141643 112.152848 112.152848 0 0 0-16.737952 5.484107 42.730335 42.730335 0 0 0-9.925663 5.78402 21.1081 21.1081 0 0 0-5.04138 5.626922c-0.985426 1.785191-1.77091 3.370441-2.370734 4.741468a8.083345 8.083345 0 0 0-0.299912 6.369562c0.785484 1.68522 2.470705 2.527831 5.04138 2.52783h11.996484a29.519921 29.519921 0 0 1 6.669474 0.585543 6.06965 6.06965 0 0 1 3.413286 1.928007 14.552878 14.552878 0 0 1 1.928006 3.713197 29.719862 29.719862 0 0 0 2.070822 3.998828 8.668888 8.668888 0 0 0 2.970558 2.513549 5.712612 5.712612 0 0 1 2.856306 5.484107 16.709389 16.709389 0 0 1-3.413286 8.440384c-2.770617 3.955984-4.784312 7.140765-6.069649 9.34012a21.122381 21.122381 0 0 0-2.370734 5.484107 4.284459 4.284459 0 0 0 0.442727 3.413286 13.653142 13.653142 0 0 0 2.670646 2.856306 99.970703 99.970703 0 0 1 11.996484 11.111029 35.789512 35.789512 0 0 1 6.083932 9.040208 16.495166 16.495166 0 0 1 1.428153 7.854841 23.778746 23.778746 0 0 1-1.77091 7.255017c4.927128 0.199941 9.282994 0.499854 13.039036 0.885455s7.497803 0.942581 11.253845 1.642375 7.811996 1.628094 12.153581 2.856306 9.682877 2.656364 16.009594 4.441556a149.956055 149.956055 0 0 0 18.665959 4.141643 133.346637 133.346637 0 0 0 20.751061 1.428153q11.253845 0 25.478248-1.185367t32.847517-3.856013l14.967043-1.913725q5.712612-0.756921 9.62575-1.042551a31.94778 31.94778 0 0 1 6.226747 0 26.292295 26.292295 0 0 1 5.04138 1.185367q7.683463 2.385015 8.297568 4.441555t-3.584664 5.584078z m-23.421708-36.446462a34.27567 34.27567 0 0 1-12.296396 8.297568 91.287534 91.287534 0 0 1-18.223231 5.626923 103.269737 103.269737 0 0 1-20.893877 2.085103 94.815071 94.815071 0 0 1-20.308334-2.085103 43.415848 43.415848 0 0 1-16.15241-6.81229 20.522557 20.522557 0 0 1-8.440383-12.439211 75.349347 75.349347 0 0 1-0.885455-10.968215 41.116522 41.116522 0 0 1 1.328182-10.225574 75.077998 75.077998 0 0 1 3.998828-11.268127 160.867143 160.867143 0 0 1 7.454958-14.367218l-2.856306-2.227919a16.109565 16.109565 0 0 0-2.513549-1.628094q-13.053318 13.924491-20.751061 22.379156t-12.153582 13.781676c-2.956277 3.556101-5.241321 6.469533-6.812289 8.740295s-3.256189 4.884283-5.04138 7.854841q-6.512377 11.268126-11.853669 12.296397a8.011938 8.011938 0 0 1-8.568917-3.413286c-1.185367-1.77091-1.428153-4.384429-0.885455-7.854841s2.856306-8.183316 6.669474-14.281529a257.824444 257.824444 0 0 1 17.337776-23.107514q11.553757-14.067306 30.81954-34.532737-21.95071 16.966457-35.732386 22.207778t-20.893877 3.413285c-1.58525-0.599824-2.927713-1.142522-4.013109-1.628094a6.869415 6.869415 0 0 1-2.656365-2.085103 9.568624 9.568624 0 0 1-1.628094-3.556101 46.157902 46.157902 0 0 1-0.899736-12.853376 13.324667 13.324667 0 0 1 2.227918-5.926835 34.004321 34.004321 0 0 1 5.926835-6.526658q4.01311-3.556101 11.425223-8.883112-13.35323-5.926835-12.853376-6.669474c0.299912-0.499854 5.184195 1.142522 14.66713 4.884283q6.812289-7.383551 17.494873-17.337776t20.45115-18.565988q-22.536253-7.683463-26.092354-25.192617-0.571261-4.427274 1.928007-6.06965c1.68522-1.085396 3.898857-0.942581 6.669474 0.442728a35.603852 35.603852 0 0 0 17.637688 2.070821 36.360773 36.360773 0 0 0 17.866193-8.340413 37.403325 37.403325 0 0 1 12.596309-4.58437 35.418192 35.418192 0 0 1 12.153581 0 35.004028 35.004028 0 0 1 10.668302 3.698916 26.80643 26.80643 0 0 1 7.854841 6.226746c2.770617 3.556101 3.45613 6.626629 2.070822 9.183023s-5.626922 6.026805-12.739124 10.36839q-16.595137 9.497217-27.706167 16.609419t-19.265782 13.181851a174.863042 174.863042 0 0 0-14.524315 11.996484q-6.383843 5.941116-13.781676 12.453494c1.428153 0.785484 2.527831 1.428153 3.413286 1.770909a14.510034 14.510034 0 0 1 3.113373 2.085104q13.924491-8.011938 22.222059-12.853376t13.039036-7.854841q4.727186-2.956277 6.669474-4.441556c1.285338-0.985426 2.413578-1.87088 3.413286-2.670646a17.137835 17.137835 0 0 1 6.212465-4.141643 16.752234 16.752234 0 0 1 7.56921-0.74264 37.131976 37.131976 0 0 1 9.625751 2.513549q5.341292 2.085103 12.739124 5.626923a6.198184 6.198184 0 0 1 3.27047 6.826571c-0.399883 3.156218-2.856306 6.126776-7.412114 8.883111s-9.040208 5.384136-13.481763 8.454665a75.163687 75.163687 0 0 0-12.010766 10.211293 54.26981 54.26981 0 0 1 14.081588 5.341292 14.510034 14.510034 0 0 1 6.369561 6.669474 11.068185 11.068185 0 0 1-0.299912 8.297568 51.242126 51.242126 0 0 1-5.626922 10.225575q7.412114 4.727186 13.781675 8.297569t11.85367 6.512377c3.656071 1.985133 7.140765 3.756042 10.525486 5.341292s6.712319 3.070529 10.068478 4.441555q13.624579 5.626922 15.566867 9.997071c1.271056 2.742054 0.442727 5.069943-2.527831 6.840852z m-127.733995-79.976563c-1.428153-0.985426-2.413578-1.670939-3.099092-2.070821s-1.928006-0.985426-3.713198-1.785192q-9.482935 9.183023-7.554929 10.825399t14.367219-7.01223z m45.700893 24.607075a16.538011 16.538011 0 0 0 1.628094-5.712612c-0.099971-0.785484-1.02827-1.570968-2.856306-2.370734l-4.441555 4.455837a19.465724 19.465724 0 0 0 2.856305 1.628095 12.853376 12.853376 0 0 1 2.756336 1.956569z m43.572945 48.300131c1.428153-0.199941 2.213637-0.685513 2.513549-1.428153s-0.442727-2.170792-2.227919-4.141643-4.684342-4.798594-8.740295-8.454665-9.625751-8.440384-16.737952-14.367219a92.701405 92.701405 0 0 0-9.640033 11.996485 27.134905 27.134905 0 0 0-3.841731 8.297568 7.540647 7.540647 0 0 0 0.442727 5.484107 8.183316 8.183316 0 0 0 3.556101 3.27047 23.892998 23.892998 0 0 0 6.369562 1.185367 84.261021 84.261021 0 0 0 8.568918 0.142816q4.584371-0.157097 9.768565-0.599825a96.01472 96.01472 0 0 0 9.911382-1.428152z" fill="#E00223" p-id="5381"></path><path d="M652.99046 847.108896q-4.455837 3.256189-7.140765 5.341291a31.148015 31.148015 0 0 0-6.226747 7.697745c-0.785484 4.941409-1.428153 9.839974-1.928006 14.66713s-1.02827 10.625458-1.628094 17.337776a23.992969 23.992969 0 0 0 3.998828-3.698916c1.085396-1.285338 2.327889-2.856306 3.713197-4.598652s2.656364-2.513549 3.256189-2.213637 0.685513 1.128241 0.299912 2.513549c-0.999707 2.370734-1.828036 4.541526-2.527831 6.526659s-1.428153 4.041673-2.370733 6.212465-1.87088 4.655778-2.956277 7.412113-2.42786 6.226747-3.998828 10.36839c0 1.785191 0 4.741468-0.157097 8.897393s-0.142815 8.997363-0.142815 14.524315-0.099971 11.425223-0.299912 17.623407-0.299912 12.253552-0.299912 18.080416 0 11.168156-0.142816 16.009594-0.142815 8.740296-0.142815 11.710854c0 4.927128-0.899736 7.697744-2.670646 8.297568s-3.556101-0.114252-5.341292-2.085103q-7.997656-8.897393-13.181851-15.252673c-3.45613-4.284459-6.669474-8.097627-9.640032-11.568039s-5.969679-6.712319-9.025927-9.768566-6.869415-6.469533-11.425223-10.225574q-4.155925 1.785191-6.669474 0.442727c-1.68522-0.899736-4.398711-4.098799-8.154753-9.640032q-5.027098-6.812289-4.441555-13.181852t3.5561-6.969386a41.84488 41.84488 0 0 0 5.712612-1.185367 14.038743 14.038743 0 0 0 3.713197-1.770909c3.741761-2.170792 7.140765-4.19877 9.997071-6.083932s5.826864-3.698916 8.568917-5.484107 5.712612-3.64179 8.897393-5.626922 6.712319-4.141643 10.668302-6.512377q0-5.926835 0.142815-12.153582t0.142816-13.338948q-7.397832 4.741468-12.296397 7.412114a31.419364 31.419364 0 0 1-8.568917 3.399004 13.153288 13.153288 0 0 1-6.826571-0.285631 28.348835 28.348835 0 0 1-6.955105-3.713197 137.48828 137.48828 0 0 1-11.268126-8.740296 37.91746 37.91746 0 0 1-7.697744-8.440384q-2.670646-4.455837-1.928007-5.784019c0.485572-0.885455 1.728065-1.128241 3.698916-0.74264a52.041892 52.041892 0 0 0 8.154753 1.042552 22.250622 22.250622 0 0 0 9.040208-2.070822 107.325691 107.325691 0 0 0 13.781676-7.412113q8.440384-5.184195 22.964698-14.967043 1.185367-14.281529 1.77091-22.521971a68.065767 68.065767 0 0 0 0-12.853376 11.153874 11.153874 0 0 0-2.513549-6.512377 21.093818 21.093818 0 0 0-5.484107-3.713198 1.428153 1.428153 0 0 1-1.328183-1.77091 8.140472 8.140472 0 0 1 1.028271-3.113373 9.99707 9.99707 0 0 1 2.52783-2.970558 5.284166 5.284166 0 0 1 3.399004-1.328182 26.192324 26.192324 0 0 1 12.010766 2.370734q4.584371 2.385015 10.811118 11.553757a37.231946 37.231946 0 0 1 1.928006 3.856012 14.738538 14.738538 0 0 1 0.885455 4.741468c0.099971 1.970851 0.099971 4.498682 0 7.554929s-0.342757 7.140765-0.74264 12.296397c3.756042 3.556101 6.626629 6.483814 8.568918 8.740295a34.27567 34.27567 0 0 1 4.155925 5.712612 4.127362 4.127362 0 0 1 0.585542 3.556101 6.926542 6.926542 0 0 1-1.856598 2.399297z m-37.931742 83.87542c-3.370441 2.370734-6.369562 4.584371-9.040208 6.669474a93.829646 93.829646 0 0 0-7.269298 6.212465c-2.170792 2.085103-4.284459 4.19877-6.369562 6.383843s-4.19877 4.541526-6.369562 7.140765q16.009594 11.839388 22.22206 12.853376t6.526658-6.06965q0.299912-10.068478 0.299912-18.080416z m207.082172 69.636735q4.141643 7.140765 2.513549 9.040208t-11.11103 2.527831h-22.850446c-2.370734 0-4.441556 0-6.226747-0.157097a24.00725 24.00725 0 0 1-4.884283-0.74264 37.489014 37.489014 0 0 1-4.741468-1.628094 57.868756 57.868756 0 0 1-5.784019-2.856306 120.264756 120.264756 0 0 1-12.439212-7.412113 124.163614 124.163614 0 0 1-10.825399-8.297569q-5.184195-4.441556-10.36839-9.782847t-10.811117-11.553757q-9.482935 12.753405-18.965871 18.565988a41.302182 41.302182 0 0 1-21.936428 5.712611 49.471217 49.471217 0 0 1-7.255017-0.742639c-3.070529-0.499854-6.126776-1.085396-9.197305-1.785191s-5.826864-1.428153-8.297568-2.213637a13.139007 13.139007 0 0 1-4.884283-2.370734q-2.370734-2.370734-1.928007-4.155925c0.299912-1.185367 1.228211-1.670939 2.856306-1.428153q17.537718 2.099385 30.562472-5.32701a43.101655 43.101655 0 0 0 18.665959-19.851326q-7.140765-2.970558-14.524315-5.484107t-20.45115-6.369562l-5.926834-1.428153a38.560128 38.560128 0 0 0-4.584371-0.885454 22.164933 22.164933 0 0 0-4.455837-0.157097 49.756847 49.756847 0 0 0-5.484107 0.742639c-2.170792 0.399883-3.299033-0.099971-3.399004-1.428153a3.941702 3.941702 0 0 1 1.928006-3.5561 56.654826 56.654826 0 0 1 11.553757-4.884283 66.152043 66.152043 0 0 1 10.968214-2.227919q8.883111-5.341292 20.593965-11.425223t23.564523-11.696572a74.935183 74.935183 0 0 1-6.526659-12.453494c-2.570675 0.799766-6.06965 1.928006-10.525487 3.413286s-11.11103 3.898857-19.99414 7.255016a8.954519 8.954519 0 0 1-5.712612-0.142815 11.610883 11.610883 0 0 1-5.684048-4.684341 28.134612 28.134612 0 0 1-3.998829-9.625751 55.697963 55.697963 0 0 1-1.185366-14.967042 113.95232 113.95232 0 0 0-0.599825-16.895049 152.812361 152.812361 0 0 0-2.956276-16.295225 64.695327 64.695327 0 0 1-1.428153-10.382672 18.708803 18.708803 0 0 1 0.299912-6.512377 17.494873 17.494873 0 0 0 1.328182-4.898564 52.527464 52.527464 0 0 0-0.142815-6.369562c-0.199941-1.570968 1.085396-1.928006 3.841731-1.02827s5.926835 4.19877 9.482936 9.99707c4.155925-1.428153 7.6549-2.670646 10.525486-3.856013a19.15153 19.15153 0 0 0 5.712612-3.256188q2.656364-2.385015 6.512377-0.299913a21.093818 21.093818 0 0 1 7.412114 7.997657c0.985426 1.58525 0.599824 3.45613-1.185367 5.712611a15.152702 15.152702 0 0 1-7.140765 4.741468 82.090229 82.090229 0 0 0-9.040207 2.856306 50.727991 50.727991 0 0 0-8.154753 4.284459c0.399883 1.428153 0.799766 3.099092 1.185366 5.184195s0.799766 3.898857 1.199649 5.484107q8.568917-3.856013 12.582027-4.155925a9.554343 9.554343 0 0 1 7.56921 3.256188c2.556394 2.185074 3.598945 4.598652 3.099092 7.269299a6.226747 6.226747 0 0 1-4.584371 5.184195c-2.770617 0.785484-5.441263 1.58525-7.997656 2.370734s-5.926835 1.970851-10.082759 3.5561a74.563863 74.563863 0 0 0-0.885455 9.782848 16.338069 16.338069 0 0 0 0.585542 5.184195c0.399883 1.085396 0.942581 1.68522 1.628095 1.770909a4.85572 4.85572 0 0 0 2.52783-0.442727c2.556394-1.185367 6.06965-2.556394 10.511206-4.141643s8.568917-3.070529 12.310678-4.455838q1.428153-13.624579 2.656364-29.191445t1.185367-27.406254q0-7.412114-0.28563-12.296397a58.411454 58.411454 0 0 0-1.185367-8.897392 42.230481 42.230481 0 0 0-2.527831-7.697744q-1.628094-3.713198-3.998828-8.740296t-1.77091-6.383844c0.385601-0.885455 2.070822-1.528124 5.027098-1.913725a36.51787 36.51787 0 0 1 16.752234 1.913725c4.841438 1.885162 7.75487 4.284459 8.740296 7.269299 0.585543 1.77091 1.042552 3.313315 1.328182 4.58437a16.538011 16.538011 0 0 1 0.157097 5.04138c-0.199941 2.085103-0.55698 4.898564-1.042552 8.454665s-1.228211 8.568917-2.227918 14.809946q-1.428153 7.712026-2.213637 13.781676t-1.042552 12.010765c-0.199941 3.941702-0.299912 8.197598-0.299912 12.739124s0.199941 9.99707 0.599824 16.295225a51.884795 51.884795 0 0 1 7.412114-2.213637c2.956277-0.699795 6.026805-1.285338 9.183023-1.785191s6.126776-0.84261 8.897393-1.042552a37.446169 37.446169 0 0 1 6.512377 0c0.599824-2.170792 1.142522-4.098799 1.628094-5.712611a32.704702 32.704702 0 0 0 1.042552-4.598653 7.911967 7.911967 0 0 0-7.412114 1.428153c-0.985426 1.185367-3.070529 1.428153-6.226747 0.885455s-7.140765-2.856306-12.153581-6.812289c-1.570968-1.428153-1.085396-3.45613 1.428153-6.226747q11.268126-8.897393 28.448806-7.997656 0.599824-9.99707-0.885455-12.153582t-4.741467 0a13.53889 13.53889 0 0 1-6.669474 2.970559 15.238391 15.238391 0 0 1-7.554929-1.785192c-1.77091-0.585543-3.356159-1.085396-4.741468-1.428153a54.612567 54.612567 0 0 0-5.926835-1.185366c-0.399883 0-0.74264-0.442727-1.042551-1.328183a7.712026 7.712026 0 0 1-0.285631-3.113373 9.597188 9.597188 0 0 1 1.02827-3.556101 5.712612 5.712612 0 0 1 2.970558-2.670646q16.580855-4.727186 19.551414-7.697744a11.925077 11.925077 0 0 1 4.898564-2.970558q2.856306-0.885455 10.225575 2.970558a34.961183 34.961183 0 0 1 9.482935 6.369562 15.109858 15.109858 0 0 1 3.841732 7.854841q1.785191 7.140765 1.428152 9.625751a10.468361 10.468361 0 0 1-2.956276 5.484107c-1.185367 0.985426-2.227919 3.413285-3.113373 7.255017s-1.728065 7.56921-2.527831 11.125311q-2.656364 12.753405-5.027098 20.436868a72.635857 72.635857 0 0 1-4.284459 11.425223c-1.285338 2.484986-2.470705 3.856013-3.556101 4.155925a2.513549 2.513549 0 0 1-2.856306-1.042552 11.211 11.211 0 0 0-5.712611-3.113373q-4.01311-1.02827-6.969386-1.628094a33.275963 33.275963 0 0 0-10.511206 2.085103 97.642814 97.642814 0 0 0-15.566866 7.397832c-0.785484 4.284459-0.199941 7.412114 1.785191 9.197305 1.77091-2.770617 4.841438-4.284459 9.183023-4.455837a17.009301 17.009301 0 0 1 11.268126 3.27047 10.825399 10.825399 0 0 1 2.956277 4.884283 29.077193 29.077193 0 0 1 1.428153 7.255017 37.489014 37.489014 0 0 1-0.157097 7.412113 10.197012 10.197012 0 0 1-1.913725 5.341292 43.144499 43.144499 0 0 0-2.227918 4.441556c-0.885455 1.970851-1.828036 4.284459-2.856306 6.812289s-2.027977 5.341292-3.113374 8.297568-2.027977 5.841145-2.856305 8.568918a136.545699 136.545699 0 0 0 29.776988 19.408598 182.532223 182.532223 0 0 0 33.647282 12.596308c3.156218 0.985426 5.869708 1.885162 8.140472 2.670646a43.887139 43.887139 0 0 1 6.226746 2.670646 20.07983 20.07983 0 0 1 4.884283 3.556101 30.876666 30.876666 0 0 1 4.427274 5.112787z m-99.442287-78.234216c0.599824-2.370734 0.542698-3.856013-0.142815-4.441555s-1.728065-0.299912-3.113374 0.885454a21.236634 21.236634 0 0 1-3.556101 2.51355c-1.77091 1.099678-3.698916 2.227919-5.712611 3.413285s-4.155925 2.327889-6.226747 3.413285-3.713198 1.913725-4.898564 2.51355c-1.58525 0.785484-2.370734 1.728065-2.370734 2.856305s0.785484 1.928006 2.370734 2.513549q2.956277 1.199648 7.140764 3.113374c2.770617 1.299619 5.826864 2.627801 9.197305 4.013109 1.185367-2.570675 2.113666-4.741468 2.856306-6.526658a51.413505 51.413505 0 0 0 1.628094-4.884283q0.599824-2.227919 1.328182-4.455837c0.299912-1.513842 0.84261-3.156218 1.499561-4.927128z m372.162365-53.05588q3.556101 5.941116 0.599825 9.34012a9.311557 9.311557 0 0 1-8.011938 3.08481 135.260362 135.260362 0 0 0-13.781676 0.142815 128.276694 128.276694 0 0 0-16.780796 1.95657 40.488135 40.488135 0 0 1-8.440384 0.299912 39.488428 39.488428 0 0 1-8.754577-1.77091c-5.32701-2.185074-6.812289-3.756042-4.441556-4.755749a61.539109 61.539109 0 0 0 10.968214-4.284459 81.718909 81.718909 0 0 0 9.482936-5.484107q7.412114-5.04138 6.226746-8.568917c-0.799766-2.370734-4.941409-3.556101-12.453493-3.556101q-31.419364 0-52.456056 3.856013a21.122381 21.122381 0 0 1 3.998828 6.669474 17.394902 17.394902 0 0 1 1.042552 5.469826 7.483521 7.483521 0 0 1-0.885455 3.856012 5.069943 5.069943 0 0 1-2.085103 2.070822 119.764903 119.764903 0 0 0-13.039037 8.754577 75.049435 75.049435 0 0 0-10.36839 9.625751c2.170792 0.399883 4.284459 0.74264 6.226747 1.042552s3.856013 0.542698 5.626923 0.742639q9.782847-9.497217 14.66713-15.124139a37.046286 37.046286 0 0 0 6.669474-9.99707 7.726307 7.726307 0 0 1 5.626922-3.998829q3.856013-0.74264 11.268127 4.284459 6.512377 5.055661 5.484107 8.011938a18.994434 18.994434 0 0 1-5.184195 6.812289c-2.970558 2.170792-6.483814 4.998535-10.525487 8.440384s-8.254724 7.140765-12.596309 10.968214-8.568917 7.554929-12.596308 11.11103-7.454958 6.626629-10.225575 9.197305a94.872197 94.872197 0 0 0 13.338948-2.227919l16.895049-3.998828c-2.370734-5.341292-2.856306-8.568917-1.628094-9.625751s6.169621-0.457009 14.66713 1.913725a22.393438 22.393438 0 0 1 13.039036 9.782848q4.727186 7.412114 1.428153 17.494873a7.783433 7.783433 0 0 1-3.256189 4.741467 7.383551 7.383551 0 0 1-5.484107 0.885455 14.395781 14.395781 0 0 1-6.526659-3.556101 29.291416 29.291416 0 0 1-6.369562-8.568917c-2.570675 0.585543-5.04138 1.185367-7.412113 1.77091a38.560128 38.560128 0 0 0-5.626923 1.785191 8.183316 8.183316 0 0 1 3.113374 5.484107 18.337483 18.337483 0 0 1-1.342464 6.969386 26.920682 26.920682 0 0 0-0.885455 5.712612q-0.299912 4.01311-0.442727 9.640032t0 12.439212c0.099971 4.555808 0.342757 9.282994 0.742639 14.281529a39.317049 39.317049 0 0 1-0.328475 4.984253c-0.299912 2.170792-0.699795 4.498682-1.185367 6.969386s-1.042552 5.027098-1.628094 7.697745a45.358136 45.358136 0 0 1-2.085103 6.969386 8.111908 8.111908 0 0 1-2.370734 3.556101 5.941116 5.941116 0 0 1-3.256189 1.328182 8.568917 8.568917 0 0 1-3.256188-0.299912 2.342171 2.342171 0 0 1-1.785192-1.913725 8.397539 8.397539 0 0 0-1.928006-2.856306 52.056173 52.056173 0 0 0-4.884283-3.998828c-2.170792-1.77091-4.598652-3.841731-7.255017-6.212465s-5.298447-4.85572-7.854841-7.412114-5.04138-5.184195-7.412113-7.854841a56.811923 56.811923 0 0 1-5.626923-7.269298 74.549582 74.549582 0 0 0-13.63886 11.125311 57.426028 57.426028 0 0 0-7.997656 11.11103 7.140765 7.140765 0 0 1-4.598653 3.113373 8.797422 8.797422 0 0 1-6.369562-1.042552 16.780797 16.780797 0 0 1-5.926834-6.06965 29.034349 29.034349 0 0 1-3.556101-11.710853 47.414676 47.414676 0 0 1 0.142815-15.552586 19.751355 19.751355 0 0 1 4.01311-9.040207 7.612055 7.612055 0 0 1 5.626923-2.970558 5.712612 5.712612 0 0 1 4.741467 2.370733 55.38377 55.38377 0 0 0 4.584371 6.369562 13.567453 13.567453 0 0 0 3.556101 3.113374 5.455544 5.455544 0 0 0 3.570382 0.599824 29.905522 29.905522 0 0 0 4.584371-1.185367c0.985426-0.199941 2.61352-0.599824 4.898564-1.185367s4.684342-1.285338 7.255017-2.085103 5.084224-1.570968 7.554929-2.370734 4.598652-1.428153 6.369562-2.070822q3.856013-1.185367 2.527831 1.342464c-0.899736 1.670939-5.184195 5.712612-12.853377 11.996484a6.698037 6.698037 0 0 0 3.856013 3.698916q2.956277 1.342464 10.668302 1.342464 6.512377 0 8.440384-1.785191t1.928007-10.068478q0.299912-15.395488-0.885455-21.936429t-5.626923-6.812289a66.437673 66.437673 0 0 0-12.596308 3.856013 38.417313 38.417313 0 0 0-9.34012 6.212465 7.28358 7.28358 0 0 1-4.884283 1.785191 9.083052 9.083052 0 0 1-5.341292-1.785191 14.181558 14.181558 0 0 1-4.284459-5.184195 18.837337 18.837337 0 0 1-1.770909-8.740296c0-5.526952 0.685513-9.140179 2.070821-10.811117a13.953054 13.953054 0 0 1 6.226747-4.01311 44.958253 44.958253 0 0 0 11.853669-5.027098c1.970851-1.185367 4.141643-2.627801 6.512377-4.284459a79.976563 79.976563 0 0 0 7.94053-6.698037 61.524827 61.524827 0 0 0-27.863263 6.512377q-4.155925 2.370734-6.669474 1.342464c-1.68522-0.699795-2.513549-3.313315-2.513549-7.854841 0-3.356159 0-6.083931 0.142815-8.154753a14.924198 14.924198 0 0 1 1.042552-5.184195 8.797422 8.797422 0 0 1 2.513549-3.413286 23.578804 23.578804 0 0 1 4.884283-2.856305 60.410868 60.410868 0 0 0 15.466896-11.239564 190.986888 190.986888 0 0 0 15.709682-17.137835 107.568477 107.568477 0 0 1-17.137835 4.098799 137.559688 137.559688 0 0 1-14.967042 1.428153 29.662736 29.662736 0 0 0-10.525487 2.085103 37.446169 37.446169 0 0 0-9.025927 6.212466 22.97898 22.97898 0 0 0-3.713197 4.155924 42.101948 42.101948 0 0 0-4.141644 7.854841q-2.227919 5.184195-5.041379 13.624579t-6.669474 21.793613c-1.185367 4.141643-3.613227 6.269591-7.255017 6.369562s-6.869415-2.856306-9.640032-8.740295a100.656217 100.656217 0 0 1-3.998828-10.08276 20.908159 20.908159 0 0 1-1.185367-7.255017 12.125018 12.125018 0 0 1 1.628094-5.641204 17.023583 17.023583 0 0 1 4.741468-4.884283 14.138714 14.138714 0 0 0 3.713197-4.284458q1.913725-3.099092 3.841732-6.81229a81.061959 81.061959 0 0 0 3.5561-7.854841 75.249377 75.249377 0 0 0 2.527831-7.412113 5.498389 5.498389 0 0 0-0.74264-4.741468 24.278599 24.278599 0 0 0-5.484107-3.856013c-2.770617-1.570968-4.155925-2.856306-4.155925-3.998828s1.885162-1.528124 5.641204-1.328182a33.090303 33.090303 0 0 1 23.707338 10.36839 53.555734 53.555734 0 0 1 6.226747-4.284459 48.557199 48.557199 0 0 1 7.554929-3.5561 98.91387 98.91387 0 0 1 10.068478-3.113374q5.712612-1.428153 13.481763-2.956276a57.511717 57.511717 0 0 0 8.754578-5.626923 52.527464 52.527464 0 0 0 5.184195-5.041379 53.712831 53.712831 0 0 1-16.895049-6.083932 87.302987 87.302987 0 0 1-16.895049-11.696572q-10.668302-9.183023 2.970558-8.297568a147.599603 147.599603 0 0 0 18.808774 0 68.351398 68.351398 0 0 0 18.565988-3.856013q0.599824-6.812289 0.742639-11.268127a24.521385 24.521385 0 0 0-0.742639-7.554929 11.796543 11.796543 0 0 0-2.956277-5.184195 33.43306 33.43306 0 0 0-5.926834-4.441555c-2.570675-1.58525-3.813168-3.156218-3.713198-4.741468s1.928006-3.45613 5.484107-5.626922a19.879888 19.879888 0 0 1 2.970558-1.428153 7.512084 7.512084 0 0 1 3.998828-0.157097 33.518749 33.518749 0 0 1 6.226747 1.928006c2.470705 0.999707 5.712612 2.470705 9.925663 4.455838 3.156218 1.77091 5.784019 3.356159 7.854841 4.741467a15.452614 15.452614 0 0 1 4.741467 4.741468 15.838216 15.838216 0 0 1 2.070822 6.512377 47.54321 47.54321 0 0 1-0.142815 9.782847q9.99707-0.599824 14.66713 0.885455a19.52285 19.52285 0 0 1 8.740296 6.526659 16.180972 16.180972 0 0 1 3.556101 5.626923c0.599824 1.77091 0 3.513256-1.77091 5.184195s-4.998535 3.313315-9.640032 4.898564a174.991575 174.991575 0 0 1-19.994141 5.027098c-0.385601 2.185074-0.885455 4.698623-1.428153 7.554929a36.346491 36.346491 0 0 1-2.370734 7.569211q11.839388-0.599824 23.850154-0.899737t18.823055-0.28563a129.090741 129.090741 0 0 1 17.480592 1.02827 48.971363 48.971363 0 0 1 13.338948 3.713197 34.27567 34.27567 0 0 1 10.668302 7.554929 69.279697 69.279697 0 0 1 9.425809 12.839095z m-29.991211 113.509593a10.496924 10.496924 0 0 1 0 6.083931 11.510912 11.510912 0 0 1-2.856306 4.741468 10.282701 10.282701 0 0 1-4.598652 2.656364 7.669181 7.669181 0 0 1-5.32701-0.442727 76.948879 76.948879 0 0 1-19.265783-10.968215 266.036323 266.036323 0 0 1-22.222059-19.251501c-1.428153-1.428153-1.785191-2.470705-1.185367-3.27047s3.45613-1.428153 8.568917-1.77091q18.68024-1.428153 30.976637 4.884283t15.966749 17.337777z" fill="#3C2786" p-id="5382"></path><path d="M477.2134 213.23751l201.326715 318.835136-102.984106 63.681338-241.529219-382.516474h-116.365899v-114.823493h329.203526v114.823493h-69.651017z" fill="#E00223" p-id="5383"></path><path d="M626.241156 212.352055h-57.768785V98.214075h130.318952L761.215887 0l103.041232 63.295737L640.337025 415.592495l-71.63615-112.724108 57.540281-90.516332z" fill="#3C2786" p-id="5384"></path></svg>