<?xml version="1.0" standalone="no"?><!DOCTYPE svg PUBLIC "-//W3C//DTD SVG 1.1//EN" "http://www.w3.org/Graphics/SVG/1.1/DTD/svg11.dtd"><svg t="1565749814425" class="icon" viewBox="0 0 3996 1024" version="1.1" xmlns="http://www.w3.org/2000/svg" p-id="5494" xmlns:xlink="http://www.w3.org/1999/xlink" width="780.46875" height="200"><defs><style type="text/css"></style></defs><path d="M943.790474 385.05094c1.534432 2.290198 2.08408 4.236866 1.648943 5.450671s-2.290198 2.290198-5.290357 3.458198a66.415733 66.415733 0 0 1-17.016169 3.320787 186.353387 186.353387 0 0 1-25.94794-0.664157 58.285532 58.285532 0 0 1-16.031384-3.801729 71.93511 71.93511 0 0 1-17.039071-9.916556 148.862851 148.862851 0 0 1-18.825425-17.520012 283.34326 283.34326 0 0 1-21.161427-26.268568 162.604037 162.604037 0 0 0-11.886126-14.542755 58.720669 58.720669 0 0 0-11.24487-9.412713 62.682711 62.682711 0 0 0-12.870912-6.275141c-4.580395-1.671844-10.031066-3.252081-16.191697-4.809416a166.268353 166.268353 0 0 0-3.137571 18.504798q-1.168001 9.916556-1.488629 19.168955a36.093516 36.093516 0 0 1-5.954514 18.848327 45.666542 45.666542 0 0 1-17.84064 14.863383q-18.871229 9.573026-32.887239 10.420399a55.72051 55.72051 0 0 1-24.024174-3.13757c-3.320787-1.328315-4.855219-2.931453-4.580395-4.809416s2.290198-2.908551 6.275141-3.13757a54.804431 54.804431 0 0 0 21.642369-7.099613 79.9279 79.9279 0 0 0 22.627153-18.665112 70.858717 70.858717 0 0 0 9.916556-17.359698 135.41939 135.41939 0 0 0 6.870593-24.940253 48.30027 48.30027 0 0 1-14.863383 3.641414 66.25542 66.25542 0 0 1-14.863383-0.34353 39.253989 39.253989 0 0 1-11.909028-3.458198 10.397498 10.397498 0 0 1-5.954514-6.114828c-1.96957-7.717966-1.763452-13.741186 0.664157-18.18417 1.763452-3.091767 3.59561-4.580395 5.450671-4.305571s2.496315 1.442825 1.832158 3.641414a1.190903 1.190903 0 0 0 0.984785 1.648942 15.893972 15.893972 0 0 0 6.435456-1.488628c3.435297-1.190903 8.313418-3.297885 14.725971-6.275142s15.069501-7.305731 26.108254-13.054127a69.62201 69.62201 0 0 0 2.129884-9.73334 67.99597 67.99597 0 0 0 0.824471-10.099772q-9.160791 7.282829-12.710598 5.290357c-2.290198-1.305413-2.290198-3.504002-0.160313-6.59577q2.633727-3.641414 6.595769-8.588241t8.267614-9.916556c-1.099295-4.420082-1.213805-7.008005-0.320628-7.76377s2.954355-0.274824 6.275142 1.488628c0.870275-1.122197 1.694746-2.106982 2.473413-2.977257s1.603138-1.763452 2.473414-2.656629a20.909505 20.909505 0 0 1-7.053809-2.633728 54.415097 54.415097 0 0 1-8.588242-5.7942 74.912367 74.912367 0 0 1-8.267613-7.76377 46.651327 46.651327 0 0 1-6.275142-8.267614q-6.298044-11.886126 4.580395-10.901341a38.933361 38.933361 0 0 0 13.374755-1.305413 81.55394 81.55394 0 0 0 17.680326-6.618671q19.168955-9.160791 19.833112-13.878598c0-0.870275 0.824471-1.603138 2.473414-2.152786a18.962837 18.962837 0 0 1 6.618671-0.664157 48.323172 48.323172 0 0 1 9.412713 1.488628 70.835815 70.835815 0 0 1 11.244871 3.962042 30.780257 30.780257 0 0 1 10.397497 7.443143 17.176483 17.176483 0 0 1 4.122356 8.267614 10.053968 10.053968 0 0 1-1.488628 7.42024 11.267773 11.267773 0 0 1-6.756084 4.580396 72.919895 72.919895 0 0 0-8.588241 5.45067c-4.580395 3.206277-9.916556 7.053809-15.87107 11.588401s-11.909028 9.160791-17.84064 13.878598-10.809733 8.748555-14.542756 12.04644a55.926628 55.926628 0 0 1 6.275142 10.076869 34.604887 34.604887 0 0 1 3.297885 10.07687l11.565498-5.267454q7.282829-3.297885 15.046599-7.122515t14.703069-7.420241q6.870593-3.641414 10.901341-5.954514c3.526904-1.992472 8.198908-2.290198 14.038912-0.664157a43.513756 43.513756 0 0 1 17.359699 9.916556q4.946827 4.305572 3.801728 8.427927c-0.778667 2.748237-4.122356 5.015533-10.07687 6.870594a174.055026 174.055026 0 0 0-17.84064 6.435455q-10.924243 4.465886-22.306526 9.916556t-21.825584 10.901341q-10.397498 5.473573-16.352011 9.412713a118.357417 118.357417 0 0 1 14.038912 8.1073q7.76377 5.130043 14.886285 10.580713t13.054127 10.557812a98.478501 98.478501 0 0 1 8.588241 8.107299 60.736043 60.736043 0 0 0 8.084398 7.924084q5.130043 4.305572 10.901341 8.427928a134.457507 134.457507 0 0 0 11.565498 7.443143 57.254943 57.254943 0 0 0 9.756243 4.580395q18.18417 6.298044 29.77257 11.061655a176.345223 176.345223 0 0 1 18.825425 8.931771 48.391878 48.391878 0 0 1 11.084557 8.1073 43.811482 43.811482 0 0 1 6.366749 8.588241z m321.887288-16.855855a81.55394 81.55394 0 0 1-8.427928 6.870593 56.842707 56.842707 0 0 1-10.741027 5.450671 182.322639 182.322639 0 0 1-19.008641 6.114828q-12.04644 3.297885-33.207867 8.908869c-2.656629 0.664157-4.901023 1.168001-6.870593 1.488628a47.109367 47.109367 0 0 1-5.45067 0.664158 27.024333 27.024333 0 0 1-5.7942-0.320628c-2.08408-0.34353-4.580395-0.824471-7.763771-1.488629q-8.588241-1.992472-18.985739-4.786513t-20.817897-6.046122c-6.870593-2.290198-13.626676-4.580395-19.993426-6.870593s-11.909028-4.580395-16.535227-6.870593a42.208344 42.208344 0 0 0-12.38997-3.137571 179.253774 179.253774 0 0 0-18.321581-1.488628c-6.618671-0.206118-13.099931-0.160314-19.489583 0.160313a81.302019 81.302019 0 0 0-15.87107 2.152786q-10.580713 2.633727-14.038912 0.824471t-4.786513-11.450988q-1.992472-14.542755 9.160791-14.863383a36.322536 36.322536 0 0 0 10.901341-1.488629 9.50432 9.50432 0 0 0 4.28267-3.801728 8.244712 8.244712 0 0 0 1.992472-6.275142 13.351853 13.351853 0 0 0-4.946827-5.610984 34.856809 34.856809 0 0 1-9.160791-9.595928 41.612892 41.612892 0 0 1-5.267455-11.725813 42.04803 42.04803 0 0 1-1.488629-12.389969 29.932884 29.932884 0 0 1 2.473414-11.565499c1.099295-2.42761 0.549647-3.755924-1.648942-3.962042a31.169591 31.169591 0 0 1-12.069342-3.4811 16.558129 16.558129 0 0 1-7.443143-10.07687 40.19297 40.19297 0 0 1-1.648942-13.741186 46.170386 46.170386 0 0 1 2.977257-14.382442 42.918305 42.918305 0 0 1 7.603456-12.710597 38.635635 38.635635 0 0 1 12.229656-9.412713 4.122356 4.122356 0 0 0 2.290198-2.152786 5.725494 5.725494 0 0 0-0.503844-4.305571 27.825902 27.825902 0 0 0-4.786513-6.870593 110.044 110.044 0 0 0-10.580713-10.07687 3.549806 3.549806 0 0 1-1.488629-4.28267q0.824471-2.633727 6.114828-3.641414a50.38435 50.38435 0 0 1 13.054127-0.34353 72.965699 72.965699 0 0 1 14.886285 2.977257 62.911731 62.911731 0 0 1 13.741186 6.114828 31.787944 31.787944 0 0 1 9.916556 9.160791 21.89429 21.89429 0 0 1 2.977257 6.275141 6.229338 6.229338 0 0 1-0.984785 5.130043 16.031384 16.031384 0 0 1-6.435455 4.786514 80.317234 80.317234 0 0 1-13.397657 4.580395 125.57154 125.57154 0 0 0-18.665111 6.114828 48.346074 48.346074 0 0 0-11.084557 6.435455 23.795154 23.795154 0 0 0-5.610984 6.298044c-1.099295 1.96957-1.96957 3.733022-2.633728 5.267455a8.977575 8.977575 0 0 0-0.343529 7.122515 5.56518 5.56518 0 0 0 5.633886 2.794041h13.374755a32.726925 32.726925 0 0 1 7.443142 0.664157 6.870593 6.870593 0 0 1 3.801728 2.152786 16.031384 16.031384 0 0 1 2.129884 4.122356 34.352966 34.352966 0 0 0 2.290198 4.580395 9.527222 9.527222 0 0 0 3.320786 2.816943 6.320946 6.320946 0 0 1 3.137571 6.114828 18.642209 18.642209 0 0 1-3.801728 9.412713c-3.091767 4.420082-5.359063 7.87828-6.870593 10.420399a22.35233 22.35233 0 0 0-2.633727 6.114828 4.694905 4.694905 0 0 0 0.480941 3.778827 14.909187 14.909187 0 0 0 2.977257 3.160472 109.219529 109.219529 0 0 1 13.374755 12.38997 38.2234 38.2234 0 0 1 6.870593 10.07687 18.321582 18.321582 0 0 1 1.648942 8.748555 26.085352 26.085352 0 0 1-1.96957 8.1073c5.496474 0.206118 10.351694 0.549647 14.542756 0.984785s8.359222 1.053491 12.550283 1.809256 8.702751 1.832158 13.557971 3.137571 10.786831 2.977257 17.84064 4.969729a168.741767 168.741767 0 0 0 20.817897 4.580396 150.488891 150.488891 0 0 0 23.130997 1.648942q12.573185 0 28.421353-1.328315t36.643163-4.28267l16.67264-2.152785c4.305572-0.549647 7.87828-0.938981 10.741027-1.168001a38.475321 38.475321 0 0 1 6.870593 0 30.1161 30.1161 0 0 1 5.633886 1.328314c5.725494 1.763452 8.794359 3.412395 9.160791 4.96973s-0.641255 3.71012-3.71012 6.366749z m-26.108254-40.651009a38.315008 38.315008 0 0 1-13.741186 9.160791 102.921485 102.921485 0 0 1-20.336956 6.275141 114.120552 114.120552 0 0 1-23.29131 2.290198 104.639133 104.639133 0 0 1-22.627154-2.290198 48.620897 48.620897 0 0 1-18.023856-7.603456 22.901977 22.901977 0 0 1-9.412712-13.878598 82.149392 82.149392 0 0 1-0.984785-12.229656 45.093993 45.093993 0 0 1 1.488628-11.450988 83.500608 83.500608 0 0 1 4.442984-12.550284 180.12405 180.12405 0 0 1 8.267614-16.031384l-3.000159-2.336001a15.596246 15.596246 0 0 0-2.816944-1.809257q-14.542755 15.52754-23.130996 24.940253t-13.535069 15.367227c-3.320787 3.962042-5.840004 7.214123-7.603456 9.756242s-3.641414 5.450671-5.610985 8.748555c-4.855219 8.382124-9.160791 12.939617-13.237342 13.741187a8.931771 8.931771 0 0 1-9.573027-3.801728 12.000636 12.000636 0 0 1-0.984785-8.748556c0.641255-3.870434 3.137571-9.160791 7.420241-15.87107a290.374167 290.374167 0 0 1 19.329268-25.764724q12.916715-15.710756 34.352966-38.521125-24.459311 18.871229-39.826538 24.619625t-23.291311 3.801728c-1.763452-0.641255-3.252081-1.259609-4.465885-1.809256a7.87828 7.87828 0 0 1-2.977257-2.290198 11.176165 11.176165 0 0 1-1.809257-3.962042 39.826538 39.826538 0 0 1-0.984785-7.099613 38.589831 38.589831 0 0 1 0-7.282828 14.474049 14.474049 0 0 1 2.473414-6.59577 37.971478 37.971478 0 0 1 6.618671-7.282828c2.954355-2.633727 7.214123-5.954514 12.710598-9.916557q-14.886285-6.595769-14.382442-7.42024t16.374914 5.45067q7.580554-8.290516 19.489582-19.329268t22.901977-20.61178q-25.192175-8.588241-29.085511-28.100725c-0.45804-3.297885 0.274824-5.56518 2.152786-6.870594s4.351376-1.030589 7.420241 0.503844a39.803636 39.803636 0 0 0 19.672798 2.290198 40.559401 40.559401 0 0 0 19.993426-9.160791 42.093834 42.093834 0 0 1 14.038912-5.130043 40.788421 40.788421 0 0 1 13.55797 0 38.933361 38.933361 0 0 1 11.886126 4.145258 29.566452 29.566452 0 0 1 8.771458 6.870593q4.580395 5.954514 2.290197 10.237184c-1.557334 2.862747-6.298044 6.733181-14.222127 11.565498q-18.527699 10.580713-30.894767 18.504798t-21.642369 14.748873a193.933942 193.933942 0 0 0-16.191698 13.397656q-7.099613 6.595769-15.367226 13.878598c1.534432 0.870275 2.816943 1.534432 3.801728 1.969571a16.031384 16.031384 0 0 1 3.458199 2.290197c10.374596-5.931612 18.619307-10.741027 24.802841-14.359539s11.015851-6.572867 14.542755-8.771458 6.000318-3.847532 7.420241-4.946827 2.702433-2.106982 3.801728-2.977257a17.313895 17.313895 0 0 1 15.367226-5.45067 41.681598 41.681598 0 0 1 10.741028 2.794041c3.962042 1.557334 8.702751 3.641414 14.222127 6.298044a6.870593 6.870593 0 0 1 3.618513 7.603456q-0.641255 5.290357-8.244712 9.893654c-5.084239 2.885649-10.07687 6.02322-15.046599 9.435615a84.920531 84.920531 0 0 0-13.374754 11.450988 61.239887 61.239887 0 0 1 15.687854 5.954514 16.168796 16.168796 0 0 1 7.099613 7.443143 12.298362 12.298362 0 0 1-0.320628 9.160791 58.079414 58.079414 0 0 1-6.275142 11.450988c5.496474 3.526904 10.626517 6.595769 15.367227 9.160791s9.160791 5.061337 13.214441 7.259927a227.599848 227.599848 0 0 0 22.970683 10.901341q15.184011 6.298044 17.336796 11.084557t-2.794041 7.809574z m-142.450297-89.317711c-1.534432-1.099295-2.679531-1.877962-3.458199-2.290197s-2.152786-1.099295-4.122356-1.992472c-7.053809 6.870593-9.870752 10.855537-8.427927 12.069342s6.756083-1.305413 16.008482-7.695065z m50.911095 27.482373a18.756719 18.756719 0 0 0 1.809256-6.298044c0-0.870275-1.145099-1.763452-3.137571-2.633727l-4.969729 4.946827a21.756878 21.756878 0 0 0 3.160473 1.832158 14.748873 14.748873 0 0 1 3.137571 2.19859z m48.575093 53.86545c1.534432-0.22902 2.473414-0.778667 2.794041-1.671844s-0.480942-2.290198-2.473413-4.580396-5.221651-5.336161-9.73334-9.412712-10.741027-9.412713-18.688014-16.031384a103.768858 103.768858 0 0 0-10.741027 13.397656 29.909982 29.909982 0 0 0-4.28267 9.160791 8.588241 8.588241 0 0 0 0.480942 6.114828 9.160791 9.160791 0 0 0 3.984944 3.618512 25.444097 25.444097 0 0 0 7.099613 1.328315 87.027513 87.027513 0 0 0 9.573026 0.160314c3.412395 0 7.053809-0.320628 10.901341-0.641256s7.557652-0.755765 11.084557-1.39702zM1410.074727 211.86619q-4.946827 3.641414-7.924084 5.954514a35.9103 35.9103 0 0 0-6.870593 8.588241c-0.870275 5.519376-1.603138 10.970047-2.152786 16.374914s-1.145099 11.840322-1.809256 19.329268a27.070137 27.070137 0 0 0 4.580396-4.145257c1.190903-1.419923 2.587923-3.137571 4.122355-5.107141s2.977257-2.816943 3.641415-2.473414 0.755765 1.259609 0.320627 2.794041c-1.099295 2.656629-2.038276 5.084239-2.794041 7.282829s-1.671844 4.580395-2.656629 6.870593-2.08408 5.175847-3.297885 8.244712-2.702433 6.870593-4.580395 11.565498c0 1.992472 0 5.290357-0.160314 9.916556s-0.160314 10.031066-0.160314 16.191698 0 12.733499-0.34353 19.672798-0.320628 13.741186-0.320627 20.15374 0 12.458676-0.160314 17.84064-0.183216 9.756242-0.183216 13.054127c0 5.519376-0.984785 8.611143-2.977257 9.160791a5.496474 5.496474 0 0 1-5.931612-2.290198q-8.931771-9.893654-14.703069-17.016169t-10.741027-12.870911c-3.320787-3.870434-6.664475-7.488946-10.07687-10.924243s-7.672162-7.214123-12.7335-11.450988a8.679849 8.679849 0 0 1-7.443142 0.480941q-2.816943-1.488629-9.160791-10.741027a21.367545 21.367545 0 0 1-4.969729-14.703069c0.435138-4.740709 1.763452-7.328633 3.962042-7.76377a45.803954 45.803954 0 0 0 6.458358-1.328315 16.168796 16.168796 0 0 0 4.122355-1.96957c4.191062-2.42761 7.924084-4.580395 11.244871-6.870593l9.573027-6.114828q4.580395-2.977257 9.916556-6.275142t11.886126-7.282829c0-4.39718 0-8.908869 0.183216-13.535068s0.160314-9.595928 0.160313-14.886285c-5.519376 3.526904-10.07687 6.298044-13.741186 8.267614a34.811005 34.811005 0 0 1-9.573026 3.801728 14.817579 14.817579 0 0 1-7.603457-0.320628 31.307003 31.307003 0 0 1-7.76377-4.145258 152.756187 152.756187 0 0 1-12.573185-9.73334 42.918305 42.918305 0 0 1-8.588242-9.435614c-1.992472-3.297885-2.702433-5.450671-2.152786-6.435456s1.923766-1.259609 4.145258-0.824471a55.743412 55.743412 0 0 0 9.160791 1.145099 24.665429 24.665429 0 0 0 10.099772-2.290198 119.708634 119.708634 0 0 0 15.367227-8.244712q9.412713-5.7942 25.60441-16.695541c0.870275-10.580713 1.534432-18.939935 1.96957-25.192175a73.652758 73.652758 0 0 0 0-14.359539 12.550283 12.550283 0 0 0-2.794041-7.282829 23.772252 23.772252 0 0 0-6.114828-4.122356 1.671844 1.671844 0 0 1-1.488629-1.992472 9.595928 9.595928 0 0 1 1.145099-3.458199 11.450989 11.450989 0 0 1 2.816943-3.320786 5.954514 5.954514 0 0 1 3.801729-1.488629 29.177119 29.177119 0 0 1 13.374754 2.65663q5.130043 2.656629 12.069342 12.893813a39.437204 39.437204 0 0 1 2.152786 4.282669 16.352012 16.352012 0 0 1 0.984785 5.290357c0.11451 2.290198 0.11451 5.015533 0 8.427928s-0.389334 7.99279-0.824471 13.741186c4.191062 3.962042 7.374437 7.214123 9.595928 9.756242a37.261517 37.261517 0 0 1 4.580396 6.275142 4.580395 4.580395 0 0 1 0.641255 3.962042 7.580554 7.580554 0 0 1-2.3131 3.114669z m-42.299951 93.531674q-5.610984 3.984944-10.07687 7.443143a105.669722 105.669722 0 0 0-8.084398 6.870593q-3.641414 3.458199-7.099613 7.099613t-7.122515 7.924084q17.863542 13.237343 24.802841 14.382441c4.580395 0.778667 7.030907-1.488629 7.259927-6.870593q0.297726-11.244871 0.320628-20.15374z m231.012242 77.660604q4.580395 7.924084 2.794041 10.07687c-1.213805 1.442825-5.336161 2.290198-12.389969 2.816943H1563.746993c-2.633727 0-4.946827 0-6.870593-0.160314a27.780098 27.780098 0 0 1-5.45067-0.824471 45.803954 45.803954 0 0 1-5.290357-1.832158 67.125695 67.125695 0 0 1-6.435456-3.137571 130.701583 130.701583 0 0 1-13.878598-8.267613 134.755233 134.755233 0 0 1-12.069342-9.160791c-3.847532-3.297885-7.717966-6.870593-11.450988-10.901341s-7.87828-8.267614-12.069342-12.893813a78.370565 78.370565 0 0 1-21.138525 20.611779 46.010072 46.010072 0 0 1-24.459311 6.458357 57.254943 57.254943 0 0 1-8.084398-0.824471c-3.435297-0.572549-6.870593-1.213805-10.260086-1.992472s-6.504161-1.603138-9.160791-2.473413a14.405344 14.405344 0 0 1-5.45067-2.65663c-1.763452-1.763452-2.473414-3.297885-2.152786-4.580395s1.374119-1.85506 3.137571-1.648942a54.163176 54.163176 0 0 0 34.05524-5.954514 48.094152 48.094152 0 0 0 20.817897-22.12331q-7.946986-3.297885-16.191698-6.114828t-22.901977-7.122515l-6.618671-1.648942a49.903408 49.903408 0 0 0-5.107141-0.984785 25.71892 25.71892 0 0 0-4.969729-0.160314 58.835179 58.835179 0 0 0-6.114828 0.824471c-2.42761 0.435138-3.687218 0-3.801728-1.648942a4.442984 4.442984 0 0 1 2.152785-3.962042 63.736202 63.736202 0 0 1 12.893814-5.473573 77.202565 77.202565 0 0 1 12.229655-2.473413q9.916556-5.954514 22.901977-12.710598t26.268568-13.054127a85.286963 85.286963 0 0 1-7.282829-13.878598c-2.862747 0.870275-6.870593 2.129884-11.725812 3.801729s-12.38997 4.351376-22.306526 8.084397a9.893654 9.893654 0 0 1-6.435455-0.160313 12.802205 12.802205 0 0 1-6.48126-5.221651 31.123787 31.123787 0 0 1-4.465885-10.741027 62.384985 62.384985 0 0 1-1.328315-16.67264 124.976089 124.976089 0 0 0-0.664157-18.848327 173.207652 173.207652 0 0 0-3.297885-18.18417 69.96554 69.96554 0 0 1-1.648942-11.565498 21.115623 21.115623 0 0 1 0.320627-7.259927 19.077347 19.077347 0 0 0 1.488629-5.45067 58.056512 58.056512 0 0 0-0.160314-7.099613c-0.22902-1.763452 1.213805-2.152786 4.305572-1.168001s6.595769 4.580395 10.557811 11.084557c4.580395-1.557334 8.542437-2.977257 11.748714-4.305572a21.367545 21.367545 0 0 0 6.435456-3.641414 5.885808 5.885808 0 0 1 7.259927-0.320628 23.360017 23.360017 0 0 1 8.382123 8.977575c1.099295 1.786354 0.664157 3.870434-1.328314 6.298044a16.718443 16.718443 0 0 1-7.832477 5.152945 95.56995 95.56995 0 0 0-10.076869 3.160473 56.682393 56.682393 0 0 0-9.160791 4.786513c0.435138 1.534432 0.893177 3.458199 1.328314 5.771298s0.870275 4.351376 1.328315 6.114828a48.941525 48.941525 0 0 1 14.038912-4.580396 10.741027 10.741027 0 0 1 8.427928 3.641415 8.290516 8.290516 0 0 1 3.458198 8.084398 6.870593 6.870593 0 0 1-5.107141 5.7942c-3.091767 0.893177-6.069024 1.763452-8.931771 2.633727s-6.595769 2.290198-11.221969 3.984944a81.714254 81.714254 0 0 0-1.007687 10.901341 18.321582 18.321582 0 0 0 0.664158 5.771299c0.435138 1.213805 1.053491 1.877962 1.809256 1.992472a5.404867 5.404867 0 0 0 2.816943-0.503844c2.862747-1.305413 6.870593-2.862747 11.725812-4.580395s9.527222-3.412395 13.741187-4.946827q1.648942-15.229815 2.977257-32.566612t1.328314-30.551237c0-5.519376 0-10.07687-0.343529-13.741186a64.331654 64.331654 0 0 0-1.305413-9.916556 45.98717 45.98717 0 0 0-2.816943-8.588242q-1.832158-4.122356-4.580396-9.756242c-1.763452-3.733022-2.42761-6.114828-1.96957-7.099613s2.290198-1.717648 5.610985-2.152786a40.742617 40.742617 0 0 1 18.665111 2.152786q8.1073 3.137571 9.756242 8.084398c0.664157 1.992472 1.145099 3.71012 1.488629 5.130043a18.917033 18.917033 0 0 1 0.160314 5.610984c-0.22902 2.290198-0.618353 5.450671-1.145099 9.435615s-1.397021 9.458517-2.496316 16.512325q-1.648942 8.588241-2.473413 15.367227t-1.145099 13.374754q-0.34353 6.641573-0.34353 14.222128t0.664158 18.18417a56.911413 56.911413 0 0 1 8.267613-2.496316c3.297885-0.755765 6.710279-1.419923 10.237184-1.96957s6.870593-0.938981 9.916556-1.168a41.887716 41.887716 0 0 1 7.259927 0c0.664157-2.404708 1.282511-4.580395 1.832158-6.435456a34.650691 34.650691 0 0 0 1.145099-5.130043 8.863065 8.863065 0 0 0-8.244712 1.648942c-1.122197 1.328315-3.435297 1.671844-6.870593 1.007687s-8.061496-3.206277-13.55797-7.603456q-2.633727-2.290198 1.648942-6.870593 12.573185-9.916556 31.719238-8.931771 0.641255-11.244871-0.984785-13.535069t-5.290357 0a15.275619 15.275619 0 0 1-7.443142 3.297885 16.649737 16.649737 0 0 1-8.427928-1.992472c-1.96957-0.664157-3.733022-1.190903-5.267454-1.648942a63.530084 63.530084 0 0 0-6.618672-1.328315c-0.435138 0-0.824471-0.480942-1.145099-1.488628a8.267614 8.267614 0 0 1-0.343529-3.458199 10.878439 10.878439 0 0 1 1.168001-3.962042 6.13773 6.13773 0 0 1 3.297884-2.977257q18.527699-5.290357 21.802682-8.588241a13.397657 13.397657 0 0 1 5.450671-3.320787q3.160473-0.961883 11.450988 3.320787a38.635635 38.635635 0 0 1 10.580714 7.099613 16.993267 16.993267 0 0 1 4.236866 8.771457 38.131792 38.131792 0 0 1 1.648942 10.741027 11.657106 11.657106 0 0 1-3.320787 6.114828c-1.305413 1.122197-2.473414 3.801728-3.458198 8.1073s-1.923766 8.427928-2.816943 12.389969q-2.954355 14.222128-5.610985 22.901977a82.447117 82.447117 0 0 1-4.786513 12.710598c-1.442825 2.771139-2.771139 4.305572-3.962042 4.580395a2.839845 2.839845 0 0 1-3.160473-1.145099 12.183852 12.183852 0 0 0-6.435455-3.4811c-2.977257-0.755765-5.56518-1.374119-7.763771-1.809256a37.398929 37.398929 0 0 0-11.725812 2.290197 107.639292 107.639292 0 0 0-17.359699 8.267614c-0.870275 4.832317-0.22902 8.244712 1.992473 10.237184q2.954355-4.580395 10.237183-4.969729a18.939935 18.939935 0 0 1 12.550284 3.641414 12.27546 12.27546 0 0 1 3.320786 5.450671 33.070455 33.070455 0 0 1 1.648943 8.107299 43.032815 43.032815 0 0 1-0.160314 8.267614 11.450989 11.450989 0 0 1-2.152786 5.931612 49.514074 49.514074 0 0 0-2.473414 4.969729c-1.007687 2.290198-2.038276 4.740709-3.160472 7.603457s-2.290198 5.931612-3.458199 9.16079-2.290198 6.48126-3.137571 9.573027a151.51948 151.51948 0 0 0 33.207867 21.642368 203.346654 203.346654 0 0 0 37.513438 14.038912c3.526904 1.099295 6.549965 2.106982 9.160791 2.977257a54.025764 54.025764 0 0 1 6.870593 2.977257 22.901977 22.901977 0 0 1 5.450671 3.962042 36.643163 36.643163 0 0 1 4.626199 5.90871z m-111.051686-87.23363c0.664157-2.656629 0.618353-4.305572-0.160314-4.969729s-1.923766-0.320628-3.458199 0.984785a24.43641 24.43641 0 0 1-3.962042 2.816943 292.348318 292.348318 0 0 1-13.328951 7.603456l-5.45067 2.816943c-1.763452 0.870275-2.633727 1.923766-2.633727 3.137571s0.870275 2.152786 2.633727 2.794041c2.290198 0.893177 4.855219 2.038276 7.924084 3.481101s6.504161 2.931453 10.260086 4.580395c1.305413-2.862747 2.290198-5.290357 3.137571-7.282828a53.957058 53.957058 0 0 0 1.809256-5.450671c0.435138-1.648942 0.938981-3.297885 1.488628-4.946827s1.099295-3.59561 1.740551-5.56518z m415.075432-59.155807c2.656629 4.39718 2.862747 7.87828 0.664157 10.397497a10.374596 10.374596 0 0 1-8.931771 3.481101 148.519321 148.519321 0 0 0-15.367227 0.160314 141.236493 141.236493 0 0 0-18.665111 2.152786 45.368817 45.368817 0 0 1-9.412713 0.320627 43.078619 43.078619 0 0 1-9.756242-1.96957c-5.931612-2.42761-7.603456-4.191062-4.946827-5.290356a69.049461 69.049461 0 0 0 12.229656-4.786514 92.294968 92.294968 0 0 0 10.557811-6.114827c5.519376-3.755924 7.832476-6.870593 6.870593-9.595929s-5.496474-3.962042-13.878598-3.962042a332.880237 332.880237 0 0 0-58.491649 4.305572 23.795154 23.795154 0 0 1 4.580395 7.42024 19.512484 19.512484 0 0 1 1.168001 6.114828 8.267614 8.267614 0 0 1-1.007687 4.305572 5.610984 5.610984 0 0 1-2.290197 2.290198 136.083548 136.083548 0 0 0-14.542756 9.73334 87.46265 87.46265 0 0 0-11.565498 10.741027c2.42761 0.45804 4.740709 0.824471 6.870593 1.168001s4.305572 0.618353 6.298044 0.824471q10.878439-10.580713 16.352011-16.855855a41.612892 41.612892 0 0 0 7.443143-11.244871 8.611143 8.611143 0 0 1 6.275141-4.442983c2.862747-0.549647 7.030907 1.030589 12.550284 4.786513 4.855219 3.755924 6.870593 6.710279 6.114828 8.908869a20.794995 20.794995 0 0 1-5.794201 7.603456q-4.946827 3.641414-11.725812 9.435615c-4.580395 3.847532-9.160791 7.924084-14.038912 12.229656l-14.038912 12.389969q-6.870593 5.954514-11.450988 10.237184a103.700152 103.700152 0 0 0 14.863383-2.473413l18.848327-4.580396c-2.656629-5.954514-3.252081-9.527222-1.832158-10.741027s6.870593-0.503843 16.374913 2.152786a24.963155 24.963155 0 0 1 14.542756 10.901341q5.244553 8.290516 1.648942 19.489582a8.588241 8.588241 0 0 1-3.641414 5.290357 8.176006 8.176006 0 0 1-6.114828 0.984785 15.664952 15.664952 0 0 1-7.259927-3.962042 32.4292 32.4292 0 0 1-7.122515-9.573026l-8.244711 1.96957a43.307639 43.307639 0 0 0-6.298044 1.992472 9.160791 9.160791 0 0 1 3.481101 6.114827 20.611779 20.611779 0 0 1-1.488629 7.763771 29.016805 29.016805 0 0 0-0.984785 6.435455c-0.22902 2.977257-0.389334 6.572867-0.503843 10.741027s0 8.817261 0 13.878599 0.389334 10.351694 0.824471 15.87107a42.460265 42.460265 0 0 1-0.503844 5.610984q-0.480942 3.641414-1.305412 7.76377c-0.549647 2.771139-1.168001 5.633886-1.832159 8.611144a47.750622 47.750622 0 0 1-2.290197 7.76377 8.863065 8.863065 0 0 1-2.633728 3.962042 6.710279 6.710279 0 0 1-3.641414 1.488628 9.412713 9.412713 0 0 1-3.641414-0.343529 2.587923 2.587923 0 0 1-1.96957-2.129884 9.50432 9.50432 0 0 0-2.152786-3.137571 52.834861 52.834861 0 0 0-5.450671-4.580395q-3.641414-3.000159-8.1073-6.870594c-2.954355-2.656629-5.885808-5.404867-8.748555-8.267613s-5.610984-5.7942-8.267614-8.748555a65.408046 65.408046 0 0 1-6.275141-8.1073 84.164766 84.164766 0 0 0-15.206913 12.389969 64.125536 64.125536 0 0 0-8.908869 12.38997 7.901182 7.901182 0 0 1-5.130043 3.4811 9.73334 9.73334 0 0 1-7.099613-1.168001 18.436092 18.436092 0 0 1-6.618671-6.870593 32.223082 32.223082 0 0 1-3.962042-13.054127 53.086783 53.086783 0 0 1 0.160313-17.336796 22.329428 22.329428 0 0 1 4.580396-10.07687 8.519535 8.519535 0 0 1 6.275142-3.297885 6.298044 6.298044 0 0 1 5.290356 2.633728 63.049143 63.049143 0 0 0 5.130043 7.099612 15.275619 15.275619 0 0 0 3.962042 3.481101 6.206436 6.206436 0 0 0 3.962042 0.664157 32.795631 32.795631 0 0 0 5.130043-1.328314c1.099295-0.22902 2.908551-0.664157 5.450671-1.328315s5.221651-1.419923 8.084398-2.290198 5.67969-1.763452 8.427927-2.633727l7.122515-2.290198c2.862747-0.893177 3.801728-0.389334 2.794041 1.488629s-5.771298 6.320946-14.359539 13.374754a7.443143 7.443143 0 0 0 4.282669 4.122356 32.062768 32.062768 0 0 0 11.909028 1.488629c4.832317 0 7.969888-0.664157 9.412713-1.96957s2.152786-5.061337 2.152786-11.244871a140.228806 140.228806 0 0 0-1.007687-24.459312q-1.305413-7.237025-6.275142-7.603456a75.897152 75.897152 0 0 0-14.038912 4.305572 42.483167 42.483167 0 0 0-10.420399 6.870593 8.038594 8.038594 0 0 1-5.450671 1.992472 10.031066 10.031066 0 0 1-5.931612-1.992472 16.031384 16.031384 0 0 1-4.809415-5.771298 21.298839 21.298839 0 0 1-1.96957-9.756243c0-6.160632 0.755765-10.19138 2.290197-12.069341a15.733658 15.733658 0 0 1 6.870594-4.465886 50.04082 50.04082 0 0 0 6.870593-2.290198 49.056035 49.056035 0 0 0 6.435455-3.297884c2.290198-1.328315 4.580395-2.908551 7.282829-4.786514a88.310024 88.310024 0 0 0 8.908869-7.443142 68.362402 68.362402 0 0 0-31.238297 7.557652c-3.091767 1.763452-5.56518 2.290198-7.443142 1.488629s-2.816943-3.687218-2.816943-8.771457c0-3.733022 0-6.870593 0.183215-9.160791a16.2146 16.2146 0 0 1 1.145099-5.771298 9.84785 9.84785 0 0 1 2.816943-3.801729 25.673116 25.673116 0 0 1 5.450671-3.137571 67.927264 67.927264 0 0 0 17.176483-12.573185 210.698189 210.698189 0 0 0 17.520012-19.146053 123.098127 123.098127 0 0 1-19.008641 4.580396 160.794781 160.794781 0 0 1-16.672639 1.648942 32.589513 32.589513 0 0 0-11.748714 2.290198 40.696813 40.696813 0 0 0-10.07687 6.870593 24.253194 24.253194 0 0 0-4.122356 4.580395 46.239092 46.239092 0 0 0-4.580395 8.748555q-2.473414 5.817102-5.610985 15.206913t-7.397338 24.459312q-1.992472 6.870593-8.1073 7.099613t-10.832635-9.664635a110.731059 110.731059 0 0 1-4.351376-11.176164 22.741663 22.741663 0 0 1-1.328315-8.084398 13.512166 13.512166 0 0 1 1.809256-6.275142 18.688013 18.688013 0 0 1 5.290357-5.450671 15.52754 15.52754 0 0 0 4.122356-4.809415c1.442825-2.290198 2.862747-4.832317 4.305572-7.580554s2.748237-5.67969 3.962042-8.771457a80.821077 80.821077 0 0 0 2.816943-8.267614 6.091926 6.091926 0 0 0-0.824471-5.267455 27.848804 27.848804 0 0 0-6.114828-4.305572c-3.091767-1.763452-4.580395-3.252081-4.580396-4.580395s2.08408-1.694746 6.275142-1.488628a36.917987 36.917987 0 0 1 26.428882 11.565498 60.209298 60.209298 0 0 1 6.870593-4.786513 56.865609 56.865609 0 0 1 8.427927-3.962042 111.55553 111.55553 0 0 1 11.244871-3.481101c4.305572-1.099295 9.298203-2.290198 15.023697-3.297885a62.31628 62.31628 0 0 0 9.756242-6.275141 58.491649 58.491649 0 0 0 5.7942-5.610985 60.300906 60.300906 0 0 1-18.848327-6.870593 97.88305 97.88305 0 0 1-18.825425-13.054127q-11.93193-10.237184 3.297885-9.16079a168.718865 168.718865 0 0 0 20.978211 0 75.576524 75.576524 0 0 0 20.611779-4.305572c0.435138-5.061337 0.709961-9.160791 0.824471-12.550284a27.482372 27.482372 0 0 0-0.824471-8.427927 13.306049 13.306049 0 0 0-3.297885-5.7942 37.742458 37.742458 0 0 0-6.618671-4.946827q-4.28267-2.633727-4.122356-5.290357c0-1.763452 2.152786-3.847532 6.114828-6.275142a22.146212 22.146212 0 0 1 3.297885-1.648942 8.290516 8.290516 0 0 1 4.465885-0.160314 35.56677 35.56677 0 0 1 6.870593 2.129884q4.122356 1.694746 11.061655 4.969729 5.290357 2.954355 8.771458 5.290357a17.107777 17.107777 0 0 1 5.290356 5.290356 18.092562 18.092562 0 0 1 2.290198 7.259927 52.193606 52.193606 0 0 1-0.183216 10.901341 49.239251 49.239251 0 0 1 16.374914 0.984785 21.573662 21.573662 0 0 1 9.73334 7.282829 18.481895 18.481895 0 0 1 3.984944 6.275142 5.381965 5.381965 0 0 1-1.992472 5.7942 31.100885 31.100885 0 0 1-10.741027 5.45067 196.727983 196.727983 0 0 1-22.306526 5.610985c-0.435138 2.42761-0.984785 5.244553-1.648942 8.427927a40.124264 40.124264 0 0 1-2.65663 8.427928q13.214441-0.664157 26.612098-0.984785t20.978211-0.34353a141.717434 141.717434 0 0 1 19.512484 1.168001 54.621215 54.621215 0 0 1 14.863383 4.122356 38.635635 38.635635 0 0 1 11.886126 8.427927 77.317075 77.317075 0 0 1 10.741028 14.428246z m-33.368181 126.556325a11.771616 11.771616 0 0 1 0 6.870593 13.077029 13.077029 0 0 1-3.137571 5.290357 11.5884 11.5884 0 0 1-5.130043 2.977257 8.542437 8.542437 0 0 1-5.954514-0.503844 85.309865 85.309865 0 0 1-21.482054-12.229655 295.870642 295.870642 0 0 1-24.779939-21.482055c-1.534432-1.534432-1.96957-2.748237-1.328315-3.618512s3.870434-1.557334 9.595928-1.992472q20.817897-1.648942 34.536182 5.45067t17.680326 19.237661zM213.72125 173.093143l165.76451 262.525363-84.783119 52.445527L95.821872 173.093143H0V78.530879h271.0678v94.562264H213.72125z" fill="#3C2786" p-id="5495"></path><path d="M336.430043 174.856595h-47.567406V80.866881h107.318664L447.573338 0l84.851825 52.1249-184.383818 290.076441-58.972591-92.821713 47.361289-74.523033z" fill="#3C2786" p-id="5496"></path><path d="M943.790474 385.05094c1.534432 2.290198 2.08408 4.236866 1.648943 5.450671s-2.290198 2.290198-5.290357 3.458198a66.415733 66.415733 0 0 1-17.016169 3.320787 186.353387 186.353387 0 0 1-25.94794-0.664157 58.285532 58.285532 0 0 1-16.031384-3.801729 71.93511 71.93511 0 0 1-17.039071-9.916556 148.862851 148.862851 0 0 1-18.825425-17.520012 283.34326 283.34326 0 0 1-21.161427-26.268568 162.604037 162.604037 0 0 0-11.886126-14.542755 58.720669 58.720669 0 0 0-11.24487-9.412713 62.682711 62.682711 0 0 0-12.870912-6.275141c-4.580395-1.671844-10.031066-3.252081-16.191697-4.809416a166.268353 166.268353 0 0 0-3.137571 18.504798q-1.168001 9.916556-1.488629 19.168955a36.093516 36.093516 0 0 1-5.954514 18.848327 45.666542 45.666542 0 0 1-17.84064 14.863383q-18.871229 9.573026-32.887239 10.420399a55.72051 55.72051 0 0 1-24.024174-3.13757c-3.320787-1.328315-4.855219-2.931453-4.580395-4.809416s2.290198-2.908551 6.275141-3.13757a54.804431 54.804431 0 0 0 21.642369-7.099613 79.9279 79.9279 0 0 0 22.627153-18.665112 70.858717 70.858717 0 0 0 9.916556-17.359698 135.41939 135.41939 0 0 0 6.870593-24.940253 48.30027 48.30027 0 0 1-14.863383 3.641414 66.25542 66.25542 0 0 1-14.863383-0.34353 39.253989 39.253989 0 0 1-11.909028-3.458198 10.397498 10.397498 0 0 1-5.954514-6.114828c-1.96957-7.717966-1.763452-13.741186 0.664157-18.18417 1.763452-3.091767 3.59561-4.580395 5.450671-4.305571s2.496315 1.442825 1.832158 3.641414a1.190903 1.190903 0 0 0 0.984785 1.648942 15.893972 15.893972 0 0 0 6.435456-1.488628c3.435297-1.190903 8.313418-3.297885 14.725971-6.275142s15.069501-7.305731 26.108254-13.054127a69.62201 69.62201 0 0 0 2.129884-9.73334 67.99597 67.99597 0 0 0 0.824471-10.099772q-9.160791 7.282829-12.710598 5.290357c-2.290198-1.305413-2.290198-3.504002-0.160313-6.59577q2.633727-3.641414 6.595769-8.588241t8.267614-9.916556c-1.099295-4.420082-1.213805-7.008005-0.320628-7.76377s2.954355-0.274824 6.275142 1.488628c0.870275-1.122197 1.694746-2.106982 2.473413-2.977257s1.603138-1.763452 2.473414-2.656629a20.909505 20.909505 0 0 1-7.053809-2.633728 54.415097 54.415097 0 0 1-8.588242-5.7942 74.912367 74.912367 0 0 1-8.267613-7.76377 46.651327 46.651327 0 0 1-6.275142-8.267614q-6.298044-11.886126 4.580395-10.901341a38.933361 38.933361 0 0 0 13.374755-1.305413 81.55394 81.55394 0 0 0 17.680326-6.618671q19.168955-9.160791 19.833112-13.878598c0-0.870275 0.824471-1.603138 2.473414-2.152786a18.962837 18.962837 0 0 1 6.618671-0.664157 48.323172 48.323172 0 0 1 9.412713 1.488628 70.835815 70.835815 0 0 1 11.244871 3.962042 30.780257 30.780257 0 0 1 10.397497 7.443143 17.176483 17.176483 0 0 1 4.122356 8.267614 10.053968 10.053968 0 0 1-1.488628 7.42024 11.267773 11.267773 0 0 1-6.756084 4.580396 72.919895 72.919895 0 0 0-8.588241 5.45067c-4.580395 3.206277-9.916556 7.053809-15.87107 11.588401s-11.909028 9.160791-17.84064 13.878598-10.809733 8.748555-14.542756 12.04644a55.926628 55.926628 0 0 1 6.275142 10.076869 34.604887 34.604887 0 0 1 3.297885 10.07687l11.565498-5.267454q7.282829-3.297885 15.046599-7.122515t14.703069-7.420241q6.870593-3.641414 10.901341-5.954514c3.526904-1.992472 8.198908-2.290198 14.038912-0.664157a43.513756 43.513756 0 0 1 17.359699 9.916556q4.946827 4.305572 3.801728 8.427927c-0.778667 2.748237-4.122356 5.015533-10.07687 6.870594a174.055026 174.055026 0 0 0-17.84064 6.435455q-10.924243 4.465886-22.306526 9.916556t-21.825584 10.901341q-10.397498 5.473573-16.352011 9.412713a118.357417 118.357417 0 0 1 14.038912 8.1073q7.76377 5.130043 14.886285 10.580713t13.054127 10.557812a98.478501 98.478501 0 0 1 8.588241 8.107299 60.736043 60.736043 0 0 0 8.084398 7.924084q5.130043 4.305572 10.901341 8.427928a134.457507 134.457507 0 0 0 11.565498 7.443143 57.254943 57.254943 0 0 0 9.756243 4.580395q18.18417 6.298044 29.77257 11.061655a176.345223 176.345223 0 0 1 18.825425 8.931771 48.391878 48.391878 0 0 1 11.084557 8.1073 43.811482 43.811482 0 0 1 6.366749 8.588241z m321.887288-16.855855a81.55394 81.55394 0 0 1-8.427928 6.870593 56.842707 56.842707 0 0 1-10.741027 5.450671 182.322639 182.322639 0 0 1-19.008641 6.114828q-12.04644 3.297885-33.207867 8.908869c-2.656629 0.664157-4.901023 1.168001-6.870593 1.488628a47.109367 47.109367 0 0 1-5.45067 0.664158 27.024333 27.024333 0 0 1-5.7942-0.320628c-2.08408-0.34353-4.580395-0.824471-7.763771-1.488629q-8.588241-1.992472-18.985739-4.786513t-20.817897-6.046122c-6.870593-2.290198-13.626676-4.580395-19.993426-6.870593s-11.909028-4.580395-16.535227-6.870593a42.208344 42.208344 0 0 0-12.38997-3.137571 179.253774 179.253774 0 0 0-18.321581-1.488628c-6.618671-0.206118-13.099931-0.160314-19.489583 0.160313a81.302019 81.302019 0 0 0-15.87107 2.152786q-10.580713 2.633727-14.038912 0.824471t-4.786513-11.450988q-1.992472-14.542755 9.160791-14.863383a36.322536 36.322536 0 0 0 10.901341-1.488629 9.50432 9.50432 0 0 0 4.28267-3.801728 8.244712 8.244712 0 0 0 1.992472-6.275142 13.351853 13.351853 0 0 0-4.946827-5.610984 34.856809 34.856809 0 0 1-9.160791-9.595928 41.612892 41.612892 0 0 1-5.267455-11.725813 42.04803 42.04803 0 0 1-1.488629-12.389969 29.932884 29.932884 0 0 1 2.473414-11.565499c1.099295-2.42761 0.549647-3.755924-1.648942-3.962042a31.169591 31.169591 0 0 1-12.069342-3.4811 16.558129 16.558129 0 0 1-7.443143-10.07687 40.19297 40.19297 0 0 1-1.648942-13.741186 46.170386 46.170386 0 0 1 2.977257-14.382442 42.918305 42.918305 0 0 1 7.603456-12.710597 38.635635 38.635635 0 0 1 12.229656-9.412713 4.122356 4.122356 0 0 0 2.290198-2.152786 5.725494 5.725494 0 0 0-0.503844-4.305571 27.825902 27.825902 0 0 0-4.786513-6.870593 110.044 110.044 0 0 0-10.580713-10.07687 3.549806 3.549806 0 0 1-1.488629-4.28267q0.824471-2.633727 6.114828-3.641414a50.38435 50.38435 0 0 1 13.054127-0.34353 72.965699 72.965699 0 0 1 14.886285 2.977257 62.911731 62.911731 0 0 1 13.741186 6.114828 31.787944 31.787944 0 0 1 9.916556 9.160791 21.89429 21.89429 0 0 1 2.977257 6.275141 6.229338 6.229338 0 0 1-0.984785 5.130043 16.031384 16.031384 0 0 1-6.435455 4.786514 80.317234 80.317234 0 0 1-13.397657 4.580395 125.57154 125.57154 0 0 0-18.665111 6.114828 48.346074 48.346074 0 0 0-11.084557 6.435455 23.795154 23.795154 0 0 0-5.610984 6.298044c-1.099295 1.96957-1.96957 3.733022-2.633728 5.267455a8.977575 8.977575 0 0 0-0.343529 7.122515 5.56518 5.56518 0 0 0 5.633886 2.794041h13.374755a32.726925 32.726925 0 0 1 7.443142 0.664157 6.870593 6.870593 0 0 1 3.801728 2.152786 16.031384 16.031384 0 0 1 2.129884 4.122356 34.352966 34.352966 0 0 0 2.290198 4.580395 9.527222 9.527222 0 0 0 3.320786 2.816943 6.320946 6.320946 0 0 1 3.137571 6.114828 18.642209 18.642209 0 0 1-3.801728 9.412713c-3.091767 4.420082-5.359063 7.87828-6.870593 10.420399a22.35233 22.35233 0 0 0-2.633727 6.114828 4.694905 4.694905 0 0 0 0.480941 3.778827 14.909187 14.909187 0 0 0 2.977257 3.160472 109.219529 109.219529 0 0 1 13.374755 12.38997 38.2234 38.2234 0 0 1 6.870593 10.07687 18.321582 18.321582 0 0 1 1.648942 8.748555 26.085352 26.085352 0 0 1-1.96957 8.1073c5.496474 0.206118 10.351694 0.549647 14.542756 0.984785s8.359222 1.053491 12.550283 1.809256 8.702751 1.832158 13.557971 3.137571 10.786831 2.977257 17.84064 4.969729a168.741767 168.741767 0 0 0 20.817897 4.580396 150.488891 150.488891 0 0 0 23.130997 1.648942q12.573185 0 28.421353-1.328315t36.643163-4.28267l16.67264-2.152785c4.305572-0.549647 7.87828-0.938981 10.741027-1.168001a38.475321 38.475321 0 0 1 6.870593 0 30.1161 30.1161 0 0 1 5.633886 1.328314c5.725494 1.763452 8.794359 3.412395 9.160791 4.96973s-0.641255 3.71012-3.71012 6.366749z m-26.108254-40.651009a38.315008 38.315008 0 0 1-13.741186 9.160791 102.921485 102.921485 0 0 1-20.336956 6.275141 114.120552 114.120552 0 0 1-23.29131 2.290198 104.639133 104.639133 0 0 1-22.627154-2.290198 48.620897 48.620897 0 0 1-18.023856-7.603456 22.901977 22.901977 0 0 1-9.412712-13.878598 82.149392 82.149392 0 0 1-0.984785-12.229656 45.093993 45.093993 0 0 1 1.488628-11.450988 83.500608 83.500608 0 0 1 4.442984-12.550284 180.12405 180.12405 0 0 1 8.267614-16.031384l-3.000159-2.336001a15.596246 15.596246 0 0 0-2.816944-1.809257q-14.542755 15.52754-23.130996 24.940253t-13.535069 15.367227c-3.320787 3.962042-5.840004 7.214123-7.603456 9.756242s-3.641414 5.450671-5.610985 8.748555c-4.855219 8.382124-9.160791 12.939617-13.237342 13.741187a8.931771 8.931771 0 0 1-9.573027-3.801728 12.000636 12.000636 0 0 1-0.984785-8.748556c0.641255-3.870434 3.137571-9.160791 7.420241-15.87107a290.374167 290.374167 0 0 1 19.329268-25.764724q12.916715-15.710756 34.352966-38.521125-24.459311 18.871229-39.826538 24.619625t-23.291311 3.801728c-1.763452-0.641255-3.252081-1.259609-4.465885-1.809256a7.87828 7.87828 0 0 1-2.977257-2.290198 11.176165 11.176165 0 0 1-1.809257-3.962042 39.826538 39.826538 0 0 1-0.984785-7.099613 38.589831 38.589831 0 0 1 0-7.282828 14.474049 14.474049 0 0 1 2.473414-6.59577 37.971478 37.971478 0 0 1 6.618671-7.282828c2.954355-2.633727 7.214123-5.954514 12.710598-9.916557q-14.886285-6.595769-14.382442-7.42024t16.374914 5.45067q7.580554-8.290516 19.489582-19.329268t22.901977-20.61178q-25.192175-8.588241-29.085511-28.100725c-0.45804-3.297885 0.274824-5.56518 2.152786-6.870594s4.351376-1.030589 7.420241 0.503844a39.803636 39.803636 0 0 0 19.672798 2.290198 40.559401 40.559401 0 0 0 19.993426-9.160791 42.093834 42.093834 0 0 1 14.038912-5.130043 40.788421 40.788421 0 0 1 13.55797 0 38.933361 38.933361 0 0 1 11.886126 4.145258 29.566452 29.566452 0 0 1 8.771458 6.870593q4.580395 5.954514 2.290197 10.237184c-1.557334 2.862747-6.298044 6.733181-14.222127 11.565498q-18.527699 10.580713-30.894767 18.504798t-21.642369 14.748873a193.933942 193.933942 0 0 0-16.191698 13.397656q-7.099613 6.595769-15.367226 13.878598c1.534432 0.870275 2.816943 1.534432 3.801728 1.969571a16.031384 16.031384 0 0 1 3.458199 2.290197c10.374596-5.931612 18.619307-10.741027 24.802841-14.359539s11.015851-6.572867 14.542755-8.771458 6.000318-3.847532 7.420241-4.946827 2.702433-2.106982 3.801728-2.977257a17.313895 17.313895 0 0 1 15.367226-5.45067 41.681598 41.681598 0 0 1 10.741028 2.794041c3.962042 1.557334 8.702751 3.641414 14.222127 6.298044a6.870593 6.870593 0 0 1 3.618513 7.603456q-0.641255 5.290357-8.244712 9.893654c-5.084239 2.885649-10.07687 6.02322-15.046599 9.435615a84.920531 84.920531 0 0 0-13.374754 11.450988 61.239887 61.239887 0 0 1 15.687854 5.954514 16.168796 16.168796 0 0 1 7.099613 7.443143 12.298362 12.298362 0 0 1-0.320628 9.160791 58.079414 58.079414 0 0 1-6.275142 11.450988c5.496474 3.526904 10.626517 6.595769 15.367227 9.160791s9.160791 5.061337 13.214441 7.259927a227.599848 227.599848 0 0 0 22.970683 10.901341q15.184011 6.298044 17.336796 11.084557t-2.794041 7.809574z m-142.450297-89.317711c-1.534432-1.099295-2.679531-1.877962-3.458199-2.290197s-2.152786-1.099295-4.122356-1.992472c-7.053809 6.870593-9.870752 10.855537-8.427927 12.069342s6.756083-1.305413 16.008482-7.695065z m50.911095 27.482373a18.756719 18.756719 0 0 0 1.809256-6.298044c0-0.870275-1.145099-1.763452-3.137571-2.633727l-4.969729 4.946827a21.756878 21.756878 0 0 0 3.160473 1.832158 14.748873 14.748873 0 0 1 3.137571 2.19859z m48.575093 53.86545c1.534432-0.22902 2.473414-0.778667 2.794041-1.671844s-0.480942-2.290198-2.473413-4.580396-5.221651-5.336161-9.73334-9.412712-10.741027-9.412713-18.688014-16.031384a103.768858 103.768858 0 0 0-10.741027 13.397656 29.909982 29.909982 0 0 0-4.28267 9.160791 8.588241 8.588241 0 0 0 0.480942 6.114828 9.160791 9.160791 0 0 0 3.984944 3.618512 25.444097 25.444097 0 0 0 7.099613 1.328315 87.027513 87.027513 0 0 0 9.573026 0.160314c3.412395 0 7.053809-0.320628 10.901341-0.641256s7.557652-0.755765 11.084557-1.39702z" fill="#E00223" p-id="5497"></path><path d="M1410.074727 211.86619q-4.946827 3.641414-7.924084 5.954514a35.9103 35.9103 0 0 0-6.870593 8.588241c-0.870275 5.519376-1.603138 10.970047-2.152786 16.374914s-1.145099 11.840322-1.809256 19.329268a27.070137 27.070137 0 0 0 4.580396-4.145257c1.190903-1.419923 2.587923-3.137571 4.122355-5.107141s2.977257-2.816943 3.641415-2.473414 0.755765 1.259609 0.320627 2.794041c-1.099295 2.656629-2.038276 5.084239-2.794041 7.282829s-1.671844 4.580395-2.656629 6.870593-2.08408 5.175847-3.297885 8.244712-2.702433 6.870593-4.580395 11.565498c0 1.992472 0 5.290357-0.160314 9.916556s-0.160314 10.031066-0.160314 16.191698 0 12.733499-0.34353 19.672798-0.320628 13.741186-0.320627 20.15374 0 12.458676-0.160314 17.84064-0.183216 9.756242-0.183216 13.054127c0 5.519376-0.984785 8.611143-2.977257 9.160791a5.496474 5.496474 0 0 1-5.931612-2.290198q-8.931771-9.893654-14.703069-17.016169t-10.741027-12.870911c-3.320787-3.870434-6.664475-7.488946-10.07687-10.924243s-7.672162-7.214123-12.7335-11.450988a8.679849 8.679849 0 0 1-7.443142 0.480941q-2.816943-1.488629-9.160791-10.741027a21.367545 21.367545 0 0 1-4.969729-14.703069c0.435138-4.740709 1.763452-7.328633 3.962042-7.76377a45.803954 45.803954 0 0 0 6.458358-1.328315 16.168796 16.168796 0 0 0 4.122355-1.96957c4.191062-2.42761 7.924084-4.580395 11.244871-6.870593l9.573027-6.114828q4.580395-2.977257 9.916556-6.275142t11.886126-7.282829c0-4.39718 0-8.908869 0.183216-13.535068s0.160314-9.595928 0.160313-14.886285c-5.519376 3.526904-10.07687 6.298044-13.741186 8.267614a34.811005 34.811005 0 0 1-9.573026 3.801728 14.817579 14.817579 0 0 1-7.603457-0.320628 31.307003 31.307003 0 0 1-7.76377-4.145258 152.756187 152.756187 0 0 1-12.573185-9.73334 42.918305 42.918305 0 0 1-8.588242-9.435614c-1.992472-3.297885-2.702433-5.450671-2.152786-6.435456s1.923766-1.259609 4.145258-0.824471a55.743412 55.743412 0 0 0 9.160791 1.145099 24.665429 24.665429 0 0 0 10.099772-2.290198 119.708634 119.708634 0 0 0 15.367227-8.244712q9.412713-5.7942 25.60441-16.695541c0.870275-10.580713 1.534432-18.939935 1.96957-25.192175a73.652758 73.652758 0 0 0 0-14.359539 12.550283 12.550283 0 0 0-2.794041-7.282829 23.772252 23.772252 0 0 0-6.114828-4.122356 1.671844 1.671844 0 0 1-1.488629-1.992472 9.595928 9.595928 0 0 1 1.145099-3.458199 11.450989 11.450989 0 0 1 2.816943-3.320786 5.954514 5.954514 0 0 1 3.801729-1.488629 29.177119 29.177119 0 0 1 13.374754 2.65663q5.130043 2.656629 12.069342 12.893813a39.437204 39.437204 0 0 1 2.152786 4.282669 16.352012 16.352012 0 0 1 0.984785 5.290357c0.11451 2.290198 0.11451 5.015533 0 8.427928s-0.389334 7.99279-0.824471 13.741186c4.191062 3.962042 7.374437 7.214123 9.595928 9.756242a37.261517 37.261517 0 0 1 4.580396 6.275142 4.580395 4.580395 0 0 1 0.641255 3.962042 7.580554 7.580554 0 0 1-2.3131 3.114669z m-42.299951 93.531674q-5.610984 3.984944-10.07687 7.443143a105.669722 105.669722 0 0 0-8.084398 6.870593q-3.641414 3.458199-7.099613 7.099613t-7.122515 7.924084q17.863542 13.237343 24.802841 14.382441c4.580395 0.778667 7.030907-1.488629 7.259927-6.870593q0.297726-11.244871 0.320628-20.15374z m231.012242 77.660604q4.580395 7.924084 2.794041 10.07687c-1.213805 1.442825-5.336161 2.290198-12.389969 2.816943H1563.746993c-2.633727 0-4.946827 0-6.870593-0.160314a27.780098 27.780098 0 0 1-5.45067-0.824471 45.803954 45.803954 0 0 1-5.290357-1.832158 67.125695 67.125695 0 0 1-6.435456-3.137571 130.701583 130.701583 0 0 1-13.878598-8.267613 134.755233 134.755233 0 0 1-12.069342-9.160791c-3.847532-3.297885-7.717966-6.870593-11.450988-10.901341s-7.87828-8.267614-12.069342-12.893813a78.370565 78.370565 0 0 1-21.138525 20.611779 46.010072 46.010072 0 0 1-24.459311 6.458357 57.254943 57.254943 0 0 1-8.084398-0.824471c-3.435297-0.572549-6.870593-1.213805-10.260086-1.992472s-6.504161-1.603138-9.160791-2.473413a14.405344 14.405344 0 0 1-5.45067-2.65663c-1.763452-1.763452-2.473414-3.297885-2.152786-4.580395s1.374119-1.85506 3.137571-1.648942a54.163176 54.163176 0 0 0 34.05524-5.954514 48.094152 48.094152 0 0 0 20.817897-22.12331q-7.946986-3.297885-16.191698-6.114828t-22.901977-7.122515l-6.618671-1.648942a49.903408 49.903408 0 0 0-5.107141-0.984785 25.71892 25.71892 0 0 0-4.969729-0.160314 58.835179 58.835179 0 0 0-6.114828 0.824471c-2.42761 0.435138-3.687218 0-3.801728-1.648942a4.442984 4.442984 0 0 1 2.152785-3.962042 63.736202 63.736202 0 0 1 12.893814-5.473573 77.202565 77.202565 0 0 1 12.229655-2.473413q9.916556-5.954514 22.901977-12.710598t26.268568-13.054127a85.286963 85.286963 0 0 1-7.282829-13.878598c-2.862747 0.870275-6.870593 2.129884-11.725812 3.801729s-12.38997 4.351376-22.306526 8.084397a9.893654 9.893654 0 0 1-6.435455-0.160313 12.802205 12.802205 0 0 1-6.48126-5.221651 31.123787 31.123787 0 0 1-4.465885-10.741027 62.384985 62.384985 0 0 1-1.328315-16.67264 124.976089 124.976089 0 0 0-0.664157-18.848327 173.207652 173.207652 0 0 0-3.297885-18.18417 69.96554 69.96554 0 0 1-1.648942-11.565498 21.115623 21.115623 0 0 1 0.320627-7.259927 19.077347 19.077347 0 0 0 1.488629-5.45067 58.056512 58.056512 0 0 0-0.160314-7.099613c-0.22902-1.763452 1.213805-2.152786 4.305572-1.168001s6.595769 4.580395 10.557811 11.084557c4.580395-1.557334 8.542437-2.977257 11.748714-4.305572a21.367545 21.367545 0 0 0 6.435456-3.641414 5.885808 5.885808 0 0 1 7.259927-0.320628 23.360017 23.360017 0 0 1 8.382123 8.977575c1.099295 1.786354 0.664157 3.870434-1.328314 6.298044a16.718443 16.718443 0 0 1-7.832477 5.152945 95.56995 95.56995 0 0 0-10.076869 3.160473 56.682393 56.682393 0 0 0-9.160791 4.786513c0.435138 1.534432 0.893177 3.458199 1.328314 5.771298s0.870275 4.351376 1.328315 6.114828a48.941525 48.941525 0 0 1 14.038912-4.580396 10.741027 10.741027 0 0 1 8.427928 3.641415 8.290516 8.290516 0 0 1 3.458198 8.084398 6.870593 6.870593 0 0 1-5.107141 5.7942c-3.091767 0.893177-6.069024 1.763452-8.931771 2.633727s-6.595769 2.290198-11.221969 3.984944a81.714254 81.714254 0 0 0-1.007687 10.901341 18.321582 18.321582 0 0 0 0.664158 5.771299c0.435138 1.213805 1.053491 1.877962 1.809256 1.992472a5.404867 5.404867 0 0 0 2.816943-0.503844c2.862747-1.305413 6.870593-2.862747 11.725812-4.580395s9.527222-3.412395 13.741187-4.946827q1.648942-15.229815 2.977257-32.566612t1.328314-30.551237c0-5.519376 0-10.07687-0.343529-13.741186a64.331654 64.331654 0 0 0-1.305413-9.916556 45.98717 45.98717 0 0 0-2.816943-8.588242q-1.832158-4.122356-4.580396-9.756242c-1.763452-3.733022-2.42761-6.114828-1.96957-7.099613s2.290198-1.717648 5.610985-2.152786a40.742617 40.742617 0 0 1 18.665111 2.152786q8.1073 3.137571 9.756242 8.084398c0.664157 1.992472 1.145099 3.71012 1.488629 5.130043a18.917033 18.917033 0 0 1 0.160314 5.610984c-0.22902 2.290198-0.618353 5.450671-1.145099 9.435615s-1.397021 9.458517-2.496316 16.512325q-1.648942 8.588241-2.473413 15.367227t-1.145099 13.374754q-0.34353 6.641573-0.34353 14.222128t0.664158 18.18417a56.911413 56.911413 0 0 1 8.267613-2.496316c3.297885-0.755765 6.710279-1.419923 10.237184-1.96957s6.870593-0.938981 9.916556-1.168a41.887716 41.887716 0 0 1 7.259927 0c0.664157-2.404708 1.282511-4.580395 1.832158-6.435456a34.650691 34.650691 0 0 0 1.145099-5.130043 8.863065 8.863065 0 0 0-8.244712 1.648942c-1.122197 1.328315-3.435297 1.671844-6.870593 1.007687s-8.061496-3.206277-13.55797-7.603456q-2.633727-2.290198 1.648942-6.870593 12.573185-9.916556 31.719238-8.931771 0.641255-11.244871-0.984785-13.535069t-5.290357 0a15.275619 15.275619 0 0 1-7.443142 3.297885 16.649737 16.649737 0 0 1-8.427928-1.992472c-1.96957-0.664157-3.733022-1.190903-5.267454-1.648942a63.530084 63.530084 0 0 0-6.618672-1.328315c-0.435138 0-0.824471-0.480942-1.145099-1.488628a8.267614 8.267614 0 0 1-0.343529-3.458199 10.878439 10.878439 0 0 1 1.168001-3.962042 6.13773 6.13773 0 0 1 3.297884-2.977257q18.527699-5.290357 21.802682-8.588241a13.397657 13.397657 0 0 1 5.450671-3.320787q3.160473-0.961883 11.450988 3.320787a38.635635 38.635635 0 0 1 10.580714 7.099613 16.993267 16.993267 0 0 1 4.236866 8.771457 38.131792 38.131792 0 0 1 1.648942 10.741027 11.657106 11.657106 0 0 1-3.320787 6.114828c-1.305413 1.122197-2.473414 3.801728-3.458198 8.1073s-1.923766 8.427928-2.816943 12.389969q-2.954355 14.222128-5.610985 22.901977a82.447117 82.447117 0 0 1-4.786513 12.710598c-1.442825 2.771139-2.771139 4.305572-3.962042 4.580395a2.839845 2.839845 0 0 1-3.160473-1.145099 12.183852 12.183852 0 0 0-6.435455-3.4811c-2.977257-0.755765-5.56518-1.374119-7.763771-1.809256a37.398929 37.398929 0 0 0-11.725812 2.290197 107.639292 107.639292 0 0 0-17.359699 8.267614c-0.870275 4.832317-0.22902 8.244712 1.992473 10.237184q2.954355-4.580395 10.237183-4.969729a18.939935 18.939935 0 0 1 12.550284 3.641414 12.27546 12.27546 0 0 1 3.320786 5.450671 33.070455 33.070455 0 0 1 1.648943 8.107299 43.032815 43.032815 0 0 1-0.160314 8.267614 11.450989 11.450989 0 0 1-2.152786 5.931612 49.514074 49.514074 0 0 0-2.473414 4.969729c-1.007687 2.290198-2.038276 4.740709-3.160472 7.603457s-2.290198 5.931612-3.458199 9.16079-2.290198 6.48126-3.137571 9.573027a151.51948 151.51948 0 0 0 33.207867 21.642368 203.346654 203.346654 0 0 0 37.513438 14.038912c3.526904 1.099295 6.549965 2.106982 9.160791 2.977257a54.025764 54.025764 0 0 1 6.870593 2.977257 22.901977 22.901977 0 0 1 5.450671 3.962042 36.643163 36.643163 0 0 1 4.626199 5.90871z m-111.051686-87.23363c0.664157-2.656629 0.618353-4.305572-0.160314-4.969729s-1.923766-0.320628-3.458199 0.984785a24.43641 24.43641 0 0 1-3.962042 2.816943 292.348318 292.348318 0 0 1-13.328951 7.603456l-5.45067 2.816943c-1.763452 0.870275-2.633727 1.923766-2.633727 3.137571s0.870275 2.152786 2.633727 2.794041c2.290198 0.893177 4.855219 2.038276 7.924084 3.481101s6.504161 2.931453 10.260086 4.580395c1.305413-2.862747 2.290198-5.290357 3.137571-7.282828a53.957058 53.957058 0 0 0 1.809256-5.450671c0.435138-1.648942 0.938981-3.297885 1.488628-4.946827s1.099295-3.59561 1.740551-5.56518z m415.075432-59.155807c2.656629 4.39718 2.862747 7.87828 0.664157 10.397497a10.374596 10.374596 0 0 1-8.931771 3.481101 148.519321 148.519321 0 0 0-15.367227 0.160314 141.236493 141.236493 0 0 0-18.665111 2.152786 45.368817 45.368817 0 0 1-9.412713 0.320627 43.078619 43.078619 0 0 1-9.756242-1.96957c-5.931612-2.42761-7.603456-4.191062-4.946827-5.290356a69.049461 69.049461 0 0 0 12.229656-4.786514 92.294968 92.294968 0 0 0 10.557811-6.114827c5.519376-3.755924 7.832476-6.870593 6.870593-9.595929s-5.496474-3.962042-13.878598-3.962042a332.880237 332.880237 0 0 0-58.491649 4.305572 23.795154 23.795154 0 0 1 4.580395 7.42024 19.512484 19.512484 0 0 1 1.168001 6.114828 8.267614 8.267614 0 0 1-1.007687 4.305572 5.610984 5.610984 0 0 1-2.290197 2.290198 136.083548 136.083548 0 0 0-14.542756 9.73334 87.46265 87.46265 0 0 0-11.565498 10.741027c2.42761 0.45804 4.740709 0.824471 6.870593 1.168001s4.305572 0.618353 6.298044 0.824471q10.878439-10.580713 16.352011-16.855855a41.612892 41.612892 0 0 0 7.443143-11.244871 8.611143 8.611143 0 0 1 6.275141-4.442983c2.862747-0.549647 7.030907 1.030589 12.550284 4.786513 4.855219 3.755924 6.870593 6.710279 6.114828 8.908869a20.794995 20.794995 0 0 1-5.794201 7.603456q-4.946827 3.641414-11.725812 9.435615c-4.580395 3.847532-9.160791 7.924084-14.038912 12.229656l-14.038912 12.389969q-6.870593 5.954514-11.450988 10.237184a103.700152 103.700152 0 0 0 14.863383-2.473413l18.848327-4.580396c-2.656629-5.954514-3.252081-9.527222-1.832158-10.741027s6.870593-0.503843 16.374913 2.152786a24.963155 24.963155 0 0 1 14.542756 10.901341q5.244553 8.290516 1.648942 19.489582a8.588241 8.588241 0 0 1-3.641414 5.290357 8.176006 8.176006 0 0 1-6.114828 0.984785 15.664952 15.664952 0 0 1-7.259927-3.962042 32.4292 32.4292 0 0 1-7.122515-9.573026l-8.244711 1.96957a43.307639 43.307639 0 0 0-6.298044 1.992472 9.160791 9.160791 0 0 1 3.481101 6.114827 20.611779 20.611779 0 0 1-1.488629 7.763771 29.016805 29.016805 0 0 0-0.984785 6.435455c-0.22902 2.977257-0.389334 6.572867-0.503843 10.741027s0 8.817261 0 13.878599 0.389334 10.351694 0.824471 15.87107a42.460265 42.460265 0 0 1-0.503844 5.610984q-0.480942 3.641414-1.305412 7.76377c-0.549647 2.771139-1.168001 5.633886-1.832159 8.611144a47.750622 47.750622 0 0 1-2.290197 7.76377 8.863065 8.863065 0 0 1-2.633728 3.962042 6.710279 6.710279 0 0 1-3.641414 1.488628 9.412713 9.412713 0 0 1-3.641414-0.343529 2.587923 2.587923 0 0 1-1.96957-2.129884 9.50432 9.50432 0 0 0-2.152786-3.137571 52.834861 52.834861 0 0 0-5.450671-4.580395q-3.641414-3.000159-8.1073-6.870594c-2.954355-2.656629-5.885808-5.404867-8.748555-8.267613s-5.610984-5.7942-8.267614-8.748555a65.408046 65.408046 0 0 1-6.275141-8.1073 84.164766 84.164766 0 0 0-15.206913 12.389969 64.125536 64.125536 0 0 0-8.908869 12.38997 7.901182 7.901182 0 0 1-5.130043 3.4811 9.73334 9.73334 0 0 1-7.099613-1.168001 18.436092 18.436092 0 0 1-6.618671-6.870593 32.223082 32.223082 0 0 1-3.962042-13.054127 53.086783 53.086783 0 0 1 0.160313-17.336796 22.329428 22.329428 0 0 1 4.580396-10.07687 8.519535 8.519535 0 0 1 6.275142-3.297885 6.298044 6.298044 0 0 1 5.290356 2.633728 63.049143 63.049143 0 0 0 5.130043 7.099612 15.275619 15.275619 0 0 0 3.962042 3.481101 6.206436 6.206436 0 0 0 3.962042 0.664157 32.795631 32.795631 0 0 0 5.130043-1.328314c1.099295-0.22902 2.908551-0.664157 5.450671-1.328315s5.221651-1.419923 8.084398-2.290198 5.67969-1.763452 8.427927-2.633727l7.122515-2.290198c2.862747-0.893177 3.801728-0.389334 2.794041 1.488629s-5.771298 6.320946-14.359539 13.374754a7.443143 7.443143 0 0 0 4.282669 4.122356 32.062768 32.062768 0 0 0 11.909028 1.488629c4.832317 0 7.969888-0.664157 9.412713-1.96957s2.152786-5.061337 2.152786-11.244871a140.228806 140.228806 0 0 0-1.007687-24.459312q-1.305413-7.237025-6.275142-7.603456a75.897152 75.897152 0 0 0-14.038912 4.305572 42.483167 42.483167 0 0 0-10.420399 6.870593 8.038594 8.038594 0 0 1-5.450671 1.992472 10.031066 10.031066 0 0 1-5.931612-1.992472 16.031384 16.031384 0 0 1-4.809415-5.771298 21.298839 21.298839 0 0 1-1.96957-9.756243c0-6.160632 0.755765-10.19138 2.290197-12.069341a15.733658 15.733658 0 0 1 6.870594-4.465886 50.04082 50.04082 0 0 0 6.870593-2.290198 49.056035 49.056035 0 0 0 6.435455-3.297884c2.290198-1.328315 4.580395-2.908551 7.282829-4.786514a88.310024 88.310024 0 0 0 8.908869-7.443142 68.362402 68.362402 0 0 0-31.238297 7.557652c-3.091767 1.763452-5.56518 2.290198-7.443142 1.488629s-2.816943-3.687218-2.816943-8.771457c0-3.733022 0-6.870593 0.183215-9.160791a16.2146 16.2146 0 0 1 1.145099-5.771298 9.84785 9.84785 0 0 1 2.816943-3.801729 25.673116 25.673116 0 0 1 5.450671-3.137571 67.927264 67.927264 0 0 0 17.176483-12.573185 210.698189 210.698189 0 0 0 17.520012-19.146053 123.098127 123.098127 0 0 1-19.008641 4.580396 160.794781 160.794781 0 0 1-16.672639 1.648942 32.589513 32.589513 0 0 0-11.748714 2.290198 40.696813 40.696813 0 0 0-10.07687 6.870593 24.253194 24.253194 0 0 0-4.122356 4.580395 46.239092 46.239092 0 0 0-4.580395 8.748555q-2.473414 5.817102-5.610985 15.206913t-7.397338 24.459312q-1.992472 6.870593-8.1073 7.099613t-10.832635-9.664635a110.731059 110.731059 0 0 1-4.351376-11.176164 22.741663 22.741663 0 0 1-1.328315-8.084398 13.512166 13.512166 0 0 1 1.809256-6.275142 18.688013 18.688013 0 0 1 5.290357-5.450671 15.52754 15.52754 0 0 0 4.122356-4.809415c1.442825-2.290198 2.862747-4.832317 4.305572-7.580554s2.748237-5.67969 3.962042-8.771457a80.821077 80.821077 0 0 0 2.816943-8.267614 6.091926 6.091926 0 0 0-0.824471-5.267455 27.848804 27.848804 0 0 0-6.114828-4.305572c-3.091767-1.763452-4.580395-3.252081-4.580396-4.580395s2.08408-1.694746 6.275142-1.488628a36.917987 36.917987 0 0 1 26.428882 11.565498 60.209298 60.209298 0 0 1 6.870593-4.786513 56.865609 56.865609 0 0 1 8.427927-3.962042 111.55553 111.55553 0 0 1 11.244871-3.481101c4.305572-1.099295 9.298203-2.290198 15.023697-3.297885a62.31628 62.31628 0 0 0 9.756242-6.275141 58.491649 58.491649 0 0 0 5.7942-5.610985 60.300906 60.300906 0 0 1-18.848327-6.870593 97.88305 97.88305 0 0 1-18.825425-13.054127q-11.93193-10.237184 3.297885-9.16079a168.718865 168.718865 0 0 0 20.978211 0 75.576524 75.576524 0 0 0 20.611779-4.305572c0.435138-5.061337 0.709961-9.160791 0.824471-12.550284a27.482372 27.482372 0 0 0-0.824471-8.427927 13.306049 13.306049 0 0 0-3.297885-5.7942 37.742458 37.742458 0 0 0-6.618671-4.946827q-4.28267-2.633727-4.122356-5.290357c0-1.763452 2.152786-3.847532 6.114828-6.275142a22.146212 22.146212 0 0 1 3.297885-1.648942 8.290516 8.290516 0 0 1 4.465885-0.160314 35.56677 35.56677 0 0 1 6.870593 2.129884q4.122356 1.694746 11.061655 4.969729 5.290357 2.954355 8.771458 5.290357a17.107777 17.107777 0 0 1 5.290356 5.290356 18.092562 18.092562 0 0 1 2.290198 7.259927 52.193606 52.193606 0 0 1-0.183216 10.901341 49.239251 49.239251 0 0 1 16.374914 0.984785 21.573662 21.573662 0 0 1 9.73334 7.282829 18.481895 18.481895 0 0 1 3.984944 6.275142 5.381965 5.381965 0 0 1-1.992472 5.7942 31.100885 31.100885 0 0 1-10.741027 5.45067 196.727983 196.727983 0 0 1-22.306526 5.610985c-0.435138 2.42761-0.984785 5.244553-1.648942 8.427927a40.124264 40.124264 0 0 1-2.65663 8.427928q13.214441-0.664157 26.612098-0.984785t20.978211-0.34353a141.717434 141.717434 0 0 1 19.512484 1.168001 54.621215 54.621215 0 0 1 14.863383 4.122356 38.635635 38.635635 0 0 1 11.886126 8.427927 77.317075 77.317075 0 0 1 10.741028 14.428246z m-33.368181 126.556325a11.771616 11.771616 0 0 1 0 6.870593 13.077029 13.077029 0 0 1-3.137571 5.290357 11.5884 11.5884 0 0 1-5.130043 2.977257 8.542437 8.542437 0 0 1-5.954514-0.503844 85.309865 85.309865 0 0 1-21.482054-12.229655 295.870642 295.870642 0 0 1-24.779939-21.482055c-1.534432-1.534432-1.96957-2.748237-1.328315-3.618512s3.870434-1.557334 9.595928-1.992472q20.817897-1.648942 34.536182 5.45067t17.680326 19.237661z" fill="#3C2786" p-id="5498"></path><path d="M213.72125 173.093143l165.76451 262.525363-84.783119 52.445527L95.821872 173.093143H0V78.530879h271.0678v94.562264H213.72125z" fill="#E00223" p-id="5499"></path><path d="M336.430043 174.856595h-47.567406V80.866881h107.318664L447.573338 0l84.851825 52.1249-184.383818 290.076441-58.972591-92.821713 47.361289-74.523033z" fill="#3C2786" p-id="5500"></path></svg>